/* XPM */
static char *result[] = {
/* columns rows colors chars-per-pixel */
"64 64 205 2 ",
"   c #170D00",
".  c #190E00",
"X  c #1A1000",
"o  c #271B07",
"O  c #2A1E0A",
"+  c #2D210C",
"@  c #35260D",
"#  c #37280E",
"$  c #39290F",
"%  c #372810",
"&  c #3A2B10",
"*  c #1E3828",
"=  c #203B2C",
"-  c #343434",
";  c #3C3C3C",
":  c #690B0B",
">  c #770E0E",
",  c #751112",
"<  c #781010",
"1  c #5B2505",
"2  c #632504",
"3  c #652905",
"4  c #6C2B05",
"5  c #732D05",
"6  c #792E06",
"7  c #762E09",
"8  c #6C3108",
"9  c #753106",
"0  c #7C3206",
"q  c #743109",
"w  c #7A3309",
"e  c #7C2524",
"r  c #244535",
"t  c #254938",
"y  c #475708",
"u  c #4A5B0A",
"i  c #655C06",
"p  c #4F610C",
"a  c #57680B",
"s  c #5C710D",
"d  c #6A6308",
"f  c #756B05",
"g  c #65790D",
"h  c #657B0D",
"j  c #687C11",
"k  c #5C4B2F",
"l  c #5E4C30",
"z  c #614D30",
"x  c #655133",
"c  c #695435",
"v  c #6E5A37",
"b  c #705D39",
"n  c #7C663E",
"m  c #7C663F",
"M  c #203C5F",
"N  c #223D62",
"B  c #532E43",
"V  c #66344E",
"C  c #693852",
"Z  c #0B5E47",
"A  c #335243",
"S  c #0A654A",
"D  c #0C6A4E",
"F  c #0C6C51",
"G  c #0D7457",
"H  c #0E7B5C",
"J  c #11795B",
"K  c #24446B",
"L  c #264973",
"P  c #264A76",
"I  c #294B75",
"U  c #294D7A",
"Y  c #27507B",
"T  c #2C517D",
"R  c #0E7E61",
"E  c #117D62",
"W  c #444444",
"Q  c #484848",
"!  c #5E5E5E",
"~  c #7D6740",
"^  c #7F6840",
"/  c #774E63",
"(  c #636363",
")  c #7D7D7D",
"_  c #830D0D",
"`  c #8B0E0E",
"'  c #940E0E",
"]  c #8B120F",
"[  c #821111",
"{  c #8C1212",
"}  c #931212",
"|  c #941011",
" . c #9C1212",
".. c #9E1119",
"X. c #AD0F0F",
"o. c #A31313",
"O. c #AB1414",
"+. c #A81917",
"@. c #B51414",
"#. c #BB1514",
"$. c #BC1915",
"%. c #B71719",
"&. c #BB151A",
"*. c #BB1A19",
"=. c #842626",
"-. c #9E2929",
";. c #A62B2B",
":. c #AE3030",
">. c #C11616",
",. c #C2302E",
"<. c #C33433",
"1. c #C93335",
"2. c #935B0A",
"3. c #99610A",
"4. c #A76808",
"5. c #AB6B0A",
"6. c #B3710A",
"7. c #826B42",
"8. c #886F46",
"9. c #877045",
"0. c #8A7147",
"q. c #8D7448",
"w. c #91764A",
"e. c #957A4D",
"r. c #997E4E",
"t. c #9B7F50",
"y. c #67800D",
"u. c #6C840E",
"i. c #6E890E",
"p. c #72870E",
"a. c #738B0E",
"s. c #77910E",
"d. c #6D8511",
"f. c #6F8A11",
"g. c #738B11",
"h. c #758B12",
"j. c #769112",
"k. c #7A9212",
"l. c #768929",
"z. c #7D922B",
"x. c #0F815F",
"c. c #0E8664",
"v. c #0E8966",
"b. c #0F8769",
"n. c #0F8C69",
"m. c #118564",
"M. c #118A65",
"N. c #118C6A",
"B. c #0F916C",
"V. c #12916E",
"C. c #27896C",
"Z. c #298F71",
"A. c #2C9376",
"S. c #2E9A7D",
"D. c #31977B",
"F. c #319D7E",
"G. c #30A07F",
"H. c #8E8408",
"J. c #968909",
"K. c #9D9309",
"L. c #A39509",
"P. c #A69908",
"I. c #A59B09",
"U. c #AFA319",
"Y. c #988B20",
"T. c #84982D",
"R. c #849A2D",
"E. c #879B31",
"W. c #A79A26",
"Q. c #8CA231",
"!. c #9C804F",
"~. c #9E8151",
"^. c #A38554",
"/. c #A68856",
"(. c #A98A57",
"). c #AB8D58",
"_. c #B08F5A",
"`. c #978361",
"'. c #A89269",
"]. c #AD956C",
"[. c #B0976D",
"{. c #B1996E",
"}. c #B49B71",
"|. c #B89E72",
" X c #2D5484",
".X c #2E5887",
"XX c #2E5689",
"oX c #2E598C",
"OX c #335887",
"+X c #315A8C",
"@X c #2F5B91",
"#X c #325D91",
"$X c #336092",
"%X c #42638A",
"&X c #466A96",
"*X c #4A6E9A",
"=X c #4C719D",
"-X c #50749C",
";X c #4D73A2",
":X c #5077A5",
">X c #329D80",
",X c #30A484",
"<X c #A6A6A6",
"1X c #B3B4B4",
"2X c #BBBBBB",
/* pixels */
"/.(.).).).).).(.)./.(././.(./.).).).(.(./.(.(.(.(.).).).).(./.)./.(.).).).)././.(.).).(.).).).(.(.(.^.(.(.).(./.(.).).).).).^.q.",
"r.^.^.^.)./.~.^.(.^.^.^.^.^.^.^.~.^.^.^.^.^.~.t.~.^.^./.^.^./.~./.^.~.^.~.^.^.^.~.~.^.^.^./.^.^.^.^.^.^.^.~.^.~.t.~.~.^././.~.8.",
"t.t.~.~.^.~.~.^.^.^.~.^.^.^.t.t.~.~.~.~.~.^.~.~.~.~.^.~.!.^.^.^.~.~.~.~.t.~.~.~.~.t.~.~.~.^.~.^.^.~.~.^.~.^.t.e.~.~.~.~.~.~.t.8.",
"/.^.^.e.7.~ ~ ^ ^ ^ 7.7.7.7.8.7.7.7.^ 7.7.^ ~ e.~./.^.~.~.~.e.9.7.^ ^ ~ ~ ^ ~ ^ m 7.7.7.^ ~ ~ ~ ~ 7.m ~ ~ 7.7.7.~ ^ 7.e.~.~.~.^ ",
").).(.q.+ + + O + + + + O O O + O O O O + + O + z.g.g.g.i.a.d.u @ + @ + + + + + + + + + + + + + @ O + + + O O + + @ + @ /._./.q.",
"^.^.^.m O % & & $ $ $ $ & + + & $ # $ & & $ # # z.j.h.k.h.k.g.u @ @ @ $ # # @ @ $ $ & $ # # & # @ % @ @ @ % @ @ @ @ @ @ t.~.~.7.",
"^.^./.^ + & % % $ $ # # @ + + @ # # & $ # @ # @ R.a.a.a.i.h.a.u + % $ @ # @ @ # & & & & & & $ $ & @ @ @ & @ # $ @ @ & % ~./.~.0.",
").(.(.q.+ & & & & & $ $ $ $ $ $ & & & $ # # # $ R.i.a.g.a.i.h.u @ & $ $ $ $ $ # $ & & & & & & % & & & & & $ & & % & & & ^.).^.q.",
"^.^.^.q.;.@.#.*.$.#.*.} # & @ # =XoX$X#X@X$XoXU E.d.k.g.j.h.d.u + & @ # # $ $ # @ $ # $ E.i.g.i.d.a.a.a # % % & @ & % @ ~.(.~.7.",
"_.).).e.-.@.&.$.>.>.*.{ & & & # =X XoX$X$X+XXXL R.f.k.f.s.h.d.u @ + + & $ & $ $ $ & & & z.g.g.k.s.i.f.u @ & # & & & & & ~._./.0.",
").(.(.e.;.O.#.#.*.#.#.} $ $ # @ =XoXoX+X@XXX+XI E.j.j.k.j.g.g.u @ + + $ $ # $ $ # $ & & T.g.g.g.a.k.i.u @ & & & & & & & ~.).~.q.",
"^./.(./.:.+.O.O.+.O.o._ $ $ $ & =X X+XXX+X+XoXL z.s.s.h.g.g.g.u @ & & & $ $ $ $ & & # @ R.d.f.h.i.k.g.p @ & & & @ & & & /.(.~.8.",
"^.^./.(.2X1X1X1X1X1X<X) D.N.m.D / V V V V V V B R.d.i.j.j.f.h.u @ & $ $ $ $ & $ $ & # @ E.h.a.a.g.h.a.s A.v.n.n.N.v.c.D (.(.~.0.",
"^.~.~.^.2X1X1X1X1X1X<X) A.J E S / V C V C C V B E.f.j.g.f.f.h.u + # # @ @ $ $ $ $ @ $ @ R.i.h.j.g.f.a.s S.N.N.N.v.n.b.G ~.~.~.7.",
"7.7.7.9.2X1X1X1X1X1X<X) A.H R D / V V C C C C B E.y.i.i.h.h.j y o + + O + + O O O O + O z.d.j.p.k.a.i.s D.v.M.N.N.n.N.F q.^ ^ b ",
"v c c x 2X1X1X1X1X1X<X) D.N.x.S / C C V C C C B T.y.u.d.d.j j y   X X   . X X X X . . . T.g.d.g.g.f.i.g ,XN.n.B.N.N.v.F c c c x ",
"(.).)./.;.> _ _ _ [ _ < A.m.E S &XoX@X#X+X@X#XP ! t B W k ; W - @ & <.` & & & & % 1 & $ T.p.i.g.j.j.j g 2X1X1X1X1X1X<Xt.'.).).^.",
").(.(.e.-.@.#.#.#.*.@.{ S.m.H F *X XoXXX+X#XXXU ! W Q Q Q A Q ; O 1.*.@.} $ $ # % $ $ % E.i.h.a.k.a.u.s 1X1X1X1X1X1X1X-X`.).(.(.",
"^././.e.-.@.#.*.#.#.#.{ S.m.m.D *X.X.X+X#XoXXXY ! Q Q Q Q Q W ; <.#.@.*.#.} $ $ % % % % T.g.k.s.p.j.u.a 2X1X1X1X1X1X<Xt.(.(./.(.",
"/./.(.w.-.@.*.#.#.$.#.} D.m.c.D =XOX+XXXXX X XP ! W Q Q Q Q Q ; <.%.>.$.#.%.{ @ & % % % T.u.i.a.h.h.p.s 2X1X1X1X1X1X<X) (./.^.^.",
"^.~.~.0.;.@.&.&.@.#.@.` S.c.m.F A r r r r r r * ! W W Q Q Q W ; o 1.#.#.#.%.&.' % % @ @ R.h.g.g.k.h.g.s Z.H c.J H G G F t.t.~.t.",
"^.^.^.e.-.X.#.#.#.#.@.' S.m.E S A r t t r r r * ( W Q Q Q Q Q ; o @ ,.#.&.#.#.@.{ @ @ @ z.g.i.g.j.h.y.s S.c.n.N.B.M.m.F ^.^./.~.",
"~.~.~.q.;.%.&.%.#.#.@.` S.H H S A r t t r t r * ( W Q Q Q Q W ; o @ @ :.$.$.#.#.#.{ @ @ R.a.g.g.h.g.f.s A.M.B.M.v.B.b.F ^.^.~.~.",
"~.^.^.0.;.$.#.#.#.@.$.{ >XN.v.F A r t t r t t = ( Q Q Q Q Q Q ; o $ @ $ <.$.@.$.&.#.{ @ R.a.h.p.h.k.u.s S.v.V.n.N.B.m.F /.^.t.^.",
"^.^.~.w.-.O.>.>.$.@.@.} D.m.M.S -X#X#X#XoX#X#XU R.a.a.k.h.g.a.p o 1 @ + @ :.>.&.#.&.@.] z.j.g.h.k.s.h s ,XV.n.B.c.N.M.F /.^.^.^.",
"^.^.^.e.-.$.$.$.#.#.$.| S.c.E S *X+XOX+X#X+XoX XT.a.p.j.j.i.d.y X % % & & & <.>.#.@.@.{ T.g.k.d.a.a.a.s G.M.M.N.v.v.N.D ^.^.^.^.",
").).^.e.=.X.+.O.O.O.O._ C.G J S %XU  XT U U U L l.h u.j g j y.u O % @ @ @ $ $ :.O.o._ $ l.g j p.y.g y.a Z.H x.x.R x.H S /.).)./.",
"(.^.~.t.-.}  . .' '  .> C.H G Z OXU I U I U I K l.j g g j j g u + @ @ @ @ $ @ @ -., % @ l.j h y.j g s u C.H G H R G H Z /.~.^.!.",
"~.t.~.e.].].'.].].].'.{.|.{.].[.{.|.[.[.[.[.[.}.{.].].}.{.|.{.'.~.[.'.'.[.[.'.[.].'.'.].{.{.{.|.{.}.{.{.}.].|.}.}.{.'.{.^.~.^.^.",
"~.t.~.~.~.e.!.e.e.r.~.e.r.r.!.w.r.r.e.r.r.~.r.r.!.e.e.e.e.!.e.e.^ r.e.e.e.e.e.e.r.e.e.r.r.r.r.e.t.r.r.e.e.~.~.!.!.!.!.e.!.!.~.!.",
"7.7.7.7.^ ^ ^ 7.7.7.7.n 7.7.n 7.7.7.n n 7.n 7.n ^ ^ n 7.^ 9.7.^ b 7.7.m 7.7.7.7.7.7.7.7.~ ^ m m 7.7.7.7.^ n 7.7.^ ^ n 9.7.n n 7.",
"c c c x x x c c x c c x x x x x x c x x z x z c x x x x x x x c z x c z z x c c c z x z x c x x x x x x x x c x x c c c c x c x ",
").^.^.^.^.^.^.(.^./.^.^.^.^.^././././.^.~.(.(.(././././.^.^./.^././.^.(./.^.^./.(.).^./.^.^.^././.^.^.^./.(./././.(.(./.^.^.^.8.",
"/./.).).).).(.(.).).).(.(.(.^./././.)./.^.0.w.(.(.(.(.).).).).).).(.).).).)./././.).).(.).).).).)./.)././././.(.(./.(.).).)./.8.",
"^.^.^.~.^.~.t.^.~.^.~.~./.^.^.(./.^.^.^.~.q.q.^.~.~.~.^.~.~.^.~./.^.^.~.^.^.~.^.~.~.~.~.^.~.^.^.~.^.^.^.^.^./.(./.t./.t.).t.t.7.",
"^.~.^.w.7.m m m m m ^ m m m ~ ~ ~ m ~ ^ ^ ^ ^ ~ ~ ^ m m ^ ^ m m ~ ~ ~ ~ ^ ~ ^ ^ m ^ 7.m m ~ ^ 9.q.e.w.w.e.w.w.7.7.n 7.q.r.^.r.7.",
"^.^.(.q.+ + + + O + + O + O + O O + + + + + + + + O O O + + + + O O O O + + + + + + + + + O + @ %XT  X XT Y T K @ O O @ t._.^.q.",
"/.(.(.7.+ $ # # @ & @ @ $ # $ $ % # & % & @ @ @ @ @ & & & $ $ $ & % & $ % % % % $ $ $ $ $ + O $ ;X+XoX+XXX$X+XI @ $ $ $ ^././.7.",
"^.^.^.~ O # @ @ @ @ @ # @ @ # $ # $ $ @ & & & & @ @ % % @ @ # # @ @ @ % % & & % # $ # # # + + $ =XXXXXXXoX+X XK $ $ $ @ r./.t.7.",
"/.^.^.7.+ @ $ @ $ $ @ @ @ # $ $ % $ # % & % & & @ @ @ @ @ # # @ % @ % & % @ @ % @ @ @ @ # # # @ *XOXXXXXXX+X+XL @ $ @ $ t.(.t.8.",
"(.(./.~ O % % % $ $ # # # $ $ & <.%.#.>.#.#.#.` # $ $ $ # $ $ $ & & @ & U.I.U.L.K.L.K.f @ # & # =XI T T U U P L @ % $ # r.^.^.9.",
"^.)./.7.+ % % $ $ # $ # $ # $ $ 1.@.#.*.#.>.*.{ # $ $ # $ # $ $ # # $ % W.I.L.L.P.I.K.i + @ @ & *XXX#X#X#X#XXXL % & & % ^.(.~.q.",
"/.^./.~ O $ & $ $ # $ # # $ $ & <.@.%.#.#.@.@.` # # # # @ # @ $ # % $ @ W.P.I.P.I.I.I.i @ # & $ :XXX#X+XXXXXXXI % @ % @ t./.^.0.",
"/./.(.q.@ & & % & & & # # # $ $ ,.@.@.@.&.$.*.` $ $ $ $ $ & $ $ & @ # @ W.P.P.I.I.P.P.d @ $ $ $ &XXXXXXXXXOXOXU $ $ $ & (.(.^.0.",
"^./.^.0.4 q 6 5 9 6 6 q 4 4 5 2 :. .o. . . .o.> $ $ $ $ $ & & $ E.z.@ @ 2X1X1X1X2X1X<X( =.{ } , &XL U U U  XU U >Xc.N.F ^./.~.7.",
"^.^.(.w.q 7 5.4.4.4.5.6.6.4.4 2 :. .+.X.o.+.o._ $ $ $ $ & $ & $ z.d.d.a 2X1X1X1X1X1X<X( =._ _ , -XXX+X+XXX#X+XU F.N.c.F (./.^.8.",
"~ m m b 7 q 5 4.4 3 5 5 3.4 5 2 ;.} ..' o.o.+., + O + O O O @ o E.i.d.s 1X1X1X1X1X1X<X( e { } , *X+X$XoX#X+XoXU >XN.m.F 7.^ ~ v ",
"c c c z 5 q q 7 4.5 0 4.q 9 9 2 :.....X.+.X.o.>   .   . . X . R.h.p.h g 2X1X1X1X2X1X<X( e ` ] , =XoXoXoXXX#XOXL F.N.m.D v c c c ",
"(.(./.e.5 5 5 5 0 4.6.5 5 5 0 3 ,.@.&.>.#.#.@.} *X+X#XK @ & & R.d.p.y $ 2X1X1X1X1X1X<X( e { } < *XoXoX$X@XXXXXP >Xc.m.F ).).).).",
"(.(.).w.3 5 0 5 4.5 q 5.9 0 6 3 1.@.#.#.>.#.$.} =XoXXXK & & & E.p.u.p % 2X1X1X1X1X1X<X( e { { : *XoXoX+XOXXXXXU S.v.M.D ^.).).(.",
"/.).).q.4 w 5 5.6 9 0 9 4.9 5 3 ,.@.@.>.#.#.@.} *XXX+XK @ & z.k.g.j y @ 2X1X1X1X2X1X<X( e ] { , =XXX.X$XXXOX@XY >XN.c.F ).).(.).",
"/.^.^.w.4 6 4.5 0 6.4.4 9 4.5 3 ,.@.#.#.&.#.&.` ;XXX XK % & E.a.p.a O @ 1X1X2X1X1X1X<X( =._ { < =XL I Y  XU U Y S.N.m.F ^.^.~.~.",
"t.^.^.8.q 5 5.4 7 4.3.7 6 4.4 2 ;. .o.o. .o.o.[ *X+XoXK @ + E.p.g.y @ + W.J.J.J.K.J.J.i e } ' : ;X+XoX+X#X#XXXU F.N.c.D /.^.^.^.",
"^.^.^.8.5 5 q 5.w 7 7 7 5.5 4 2 :. .o.o.o.+. .> *XXXoXN @ R.j.u.g y @ O W.P.I.I.P.P.P.f =.{ } > =X.X+XoX#X+XOXP F.N.m.F ^.^.^.^.",
"t.r.^.8.5 9 q 0 5.w 7 5.8 5 5 3 :.o.o.O.o.O.o._ ;X XoXM @ z.i.a.u O @ + W.I.P.K.P.P.L.f =.{ { , &X.X+XXXXXOX XU ,Xm.m.F ^.r.!.r.",
"^.^./.w.4 6 5 q 7 4.4.q 4 6 5 3 ;...O.O.o.o.o.< *X XXXK # Q.g.g.u + @ @ U.P.P.L.L.P.K.f =.{ } < *XP L  XP U I Y S.N.M.D /.~.~.~.",
"^.~.^.9.5 q w 6 4.4 9 5.9 9 9 1 1.$.&.$.$.$.#.} ;XXXoXP E.j.d.g p @ @ @ W.L.I.L.P.P.K.f =.{ { > :X+X#X+X+X+X+XU S.N.b.D ^.^.^.^.",
"(.^.).w.4 6 9 6.5 4 0 [ 4.9 9 3 <.O.*.@.@.@.O.] *XXX XK T.i.d.u o @ $ @ W.P.I.I.L.L.J.f =.[ { : *XXX+X+XXX+XOXI S.x.b.D ^.(.^.(.",
"^.(.^.7.3 4 3.2.2.3.3.3.2.2.4 1 :.O.O.X.o.o.O.] $X X XM j g s y o % @ % Y.H.H.H.J.J.H.i e , ] : %XU U  XT  XT L C.H H Z ^.^.^./.",
"^.)./.!.4 3 2 3 3 3 2 2 2 1 1 1 ;.}  . . .}  .> %XU P K % 1 p y o @ @ & Y.J.J.H.J.H.H.f e : : : OXL U L U L I L C.H G Z )./.).).",
"^.^.^.~.{.{.{.{.].].[.'.'.[.'.].].].].'.{.{.[.|.[.{.{.].].].{.'.`.].'.}.}.}.{.{.{.{.{.[.[.[.'.[.|.[.[.[.}.[.].}.}.{.}.{./.^.).).",
"^.r.!.~.e.w.e.!.~.!.e.e.e.e.~.e.r.r.r.e.e.e.e.e.r.r.e.r.e.e.e.e.7.e.~.e.e.e.e.e.e.e.^.r.r.r.e.e.e.e.e.e.e.!.r.e.e.e.e.!.e.!.e.~.",
"m ~ m m m m n ^ ^ ^ n n 7.n n n n 7.n m m m m 7.m m ~ m n n n m v 7.n m m m n 7.7.7.7.7.7.7.m m n 7.n 7.m ^ n m ^ n m n n m m m ",
"l k k k x l x l l l k k k z k k k k z k z z l k k z k k l l l l l l k k k k l k k k k k k k z k k k k k l k k k x k k k z z z z "
};
