/* XPM */
static char *_3875_8c13dcedde47da38d8c0f92289fc15330c3d040bc58ed1cf9e3d9dff5a34e271[] = {
/* columns rows colors chars-per-pixel */
"64 64 66 1 ",
"  c #5E3327",
". c #5F352A",
"X c #64362A",
"o c #68372B",
"O c #65392D",
"+ c #693B2E",
"@ c #663C30",
"# c #6B3D31",
"$ c #743E31",
"% c #6C4133",
"& c #754133",
"* c #7D4535",
"= c #7E4837",
"- c #7E4638",
"; c #7E4939",
": c #7E726D",
"> c #824636",
", c #884637",
"< c #834837",
"1 c #894937",
"2 c #834738",
"3 c #894739",
"4 c #844A3A",
"5 c #8A4C3C",
"6 c #87513E",
"7 c #8C513E",
"8 c #91523E",
"9 c #854F40",
"0 c #8B4E40",
"q c #924E40",
"w c #875242",
"e c #8D5243",
"r c #8F5847",
"t c #8E5648",
"y c #8E594A",
"u c #935546",
"i c #945847",
"p c #935749",
"a c #955A4B",
"s c #9A5C4C",
"d c #975F51",
"f c #9C5F51",
"g c #A05F4E",
"h c #A15E50",
"j c #9B604E",
"k c #9D6151",
"l c #A2624F",
"z c #A16251",
"x c #81736F",
"c c #837672",
"v c #867974",
"b c #897B76",
"n c #877C78",
"m c #8B7E79",
"M c #8E817C",
"N c #92837E",
"B c #958681",
"V c #998782",
"C c #968984",
"Z c #9A8A85",
"A c #9D8E89",
"S c #9F918B",
"D c #A18E89",
"F c #A2928C",
"G c #A59692",
"H c #A89692",
/* pixels */
"afkaaisssaazsfwAszsafadajaaaksajkkkkkakkaaksjdaAfsssaadasasakfhz",
"545575<54<540e%Za4235>4<5wee45454544<4<;334554%Ba45555444444<25e",
"<44557;4<64545OZs<352454>444<>,5<><52-4443<414#Aa4345<4444*4434u",
"<44545;42422<4oAj1<474<54<734542<44;43;45<;*<*OZu-455*<;--454555",
"5<4-4445535<*>XSs><22**24<734442;5*=343*<<<<<<ODa463=4*<<2445545",
"35552253<>4e45OCa<&2>>><**331<>2*743544><5<<*<+As144450;9-90<;59",
"43054*4454*454+Ba;*,*444545><4<4<57<46>5>14445XZa14<55;42444745<",
"4<55<<9-4<44>>Oma4**54>**32*44<w4455454<<<&**5+Na2<352><444<4;5e",
"&2<;<*4<;4<444@Be<><552<>-44<244>24422>3<54<&4.Vs5<445-954;94455",
"4>-*535<44e4;5Xny3*>413*2*2<454<<-3<442<444>34OFs5><54224>455<45",
"3;&4<575545<<-.Mi52324*><>*443*5245;3445<<>=44XAs44=-4<43-<4<<54",
"5&&*4<<24445<2+ma5444;<44<3-<<2<4555445455<&-<OZf544354*4<44-252",
"=2;44<;454;5<<@Ba5;*4-<5<22<*4<-255545q774**;<OCz054>;<444-**3<4",
"<<4;<444e4;345OFa<*<-3>5423<w<<<e<<54957453<-<XCs324<<<43<535450",
"@OO.XO%++OOXO.XVa@@##+@@@%@@@XO+@+OO#+o&O$O#OXXMp@+X+XO+OOo@@@@#",
"BACSCNMFVAZCCBBFGFAZCBZDFFAABAVBBCZFZZZANNBCCNmZFDZZNNAACZCDVZMv",
"kaasaaajsutahssiiyswszaasksazspFsjaeaskyassataksafiapgsfassaassB",
"a<547=4452244345=445e025q55555$Dke4e5954<9;;45>44522u955>4>445#N",
"s37<55;540944545;453553,240444#Ak4<<4443455**-5444552>9;>>>>;4@b",
"p<;<24-<329<**45<3w45>354424;4+Ca5*432<14<--4<455543><3522>*42Om",
"a411344;552<*-=4;;545;*5544<-<OVa>>24442222*544753><<<3<<<4354@n",
"s8555*45584<4<;*-*252<&22<--5<+Ni*514<<42373;3554=<<>44334<2*5@M",
"s5586447e8445;*4*-5452<;;<2<*4#Zs<345<5355<***<5<<*44<4*<<*>>>+v",
"e;43e45400e<*<*4&<44w344-245<<ONa35542<5575445e53<*434>;<424<4ov",
"a2>242;40w4-44<5455444><45545<OBa45<&>4<42>>*><-<&*;;24*44545<O:",
"s9454;<;352&434*;*0w>35<595<4<XBj5454>4<244<>2;2>*=>*-**;<<<52@n",
"s54;;44*244>43*=4*<54<5<2>42=4OVd4295443<0944;;5;*5;<*4<-<*>95On",
"f044;4-2<443*<5*535545<55>44*5XNs454;4;<<35<e4<555w<5>4454<4*<$:",
"l4444-<44544<*<&;<1135<>34<4<4XNi>424&;*<*>5;4;5*4;<43<4<444;5&M",
"j34<54445<555=3><415><1<<44<<4oNi223;*;4;<<<46;;<;445455<<4404#n",
"p%#+OX +oO+++OOO+OXX+++OO+OX&X ni+@X@XXXOX..OX.O+@@++OOO@%@@#X#b",
"FGVNBBNCVSZZZVmNBZAAZVZNVZZCNNNNFVZZCZZZCNMBBANNBBVNNNNZASNACCVA",
"aajauiaaijugsiuFsaeaesaaaiapssyajagsaiusappsfspHsiuasssspsssasda",
"34;44<4443*3,5OZu*&<*;<e332424e-*>5053,>454>>4oVs32-544553424;-3",
"44494<454<2>44#Vs4-*;-5;><*<21<*4<4412<>4;<-44oBa2354445;4-9<-*-",
"5<<4<><65<*4*4@Cz4->&-44*5;*>5552<24$&2325;4<9@Dp45;45545532<452",
"<34***445<<446OCs5<>-%4;77;*252442<024<5942365OFke4<&35w53-44*&4",
"<<44=*55>44<54XNj<<>*&5->4<440455044<>-454-228+As3244=**54>*43;4",
"34**;>54055454ONae5<<004744e44*<453<322>4-4<<3+Aj544=<4555e55-4<",
"3*4;4-5>5554<<ONa55;<>4*2<;*;*9<2443&4*2*<e465#Fs5=4<<5<<544<4;4",
"<5-5>54542454<+Ns4*>425345--<4244242<45*4e5543XNs52<44<*4;4<<455",
"e<<**>;424332*OFs5;<*<><544<4>*434-4575;&-$-4;OAa<35<;4555<14<74",
"5;4>*>**4404<3+Bu2<<&**>4<5*4&*4-;5e34<5*42244XCj5535;7422*>44<=",
"4;<<27;*->245>OZa3<7*<;55;5;>35<44454;73444424#Cj754;*4413&453*<",
"434>4<-4*4<453+As<44<43;55<47<<<554444>5322*>5@Sa<44443454<<4-<4",
"*54=e--*5500*4@Ss<23475575;<44<<<;443505<4*424ONs5-<3-5544455w52",
"%@$@O+@OO@%#@#XNy%#+OOOO#+@OOO+##@+@o+#o#O@#oXXNa#+X@+OO++X.OO@@",
"NNCZZBNCVZZZNNZFFACASAABAAFCMAnNASZZFACCABBVVADNAZNAZZbZBZSZVACm",
"ajsrjyjajisjajsasaepssassiaitseFzhfaajaeyjksasfaasaaaydaakdakayA",
"a5<<5;43<5535;544<2444<555<*&2+Va5u;<44245334<54433<*455004554On",
"s34=;;><4534437<5*<44<>5<14244@Sh54<452<3-4323<4<<*445;3434553Xv",
"p2<*4*<<,1575524<=*33<<><**>34#Zz434<<3>>>*<3>*24=<4&<2<4>3<4<ox",
"i4*42<<3u553<56-<=<2<4<>>><<<5#Bf4-45>3*<<5<5>3552;54<44<<4454Xn",
"t;>2><><<45>54<4=4<<5>23<1*;54@Za5>44->24>4-*3>3324<2<<3452<>*Xm",
"s->>>>2><<555<5<3<=*<<*4<35454OCa5>42<3<-<;<94<4<6<42<;4<*>4*4On",
"d<4<>>>2<3354542>4&**;>254=*<-OBa<4344&4245<449*44*<4<42-*34<3@x",
"d9545<<<425775443*<<4<**3<<>>*+Cp3*><<<2435555**--<<54<1->4425#m",
"f24<4*<4535*2;<4><<*3<>*<*>*>2 Nk<<>>4>*4443<45>*<44<<<>43402<XB",
"s<5*4<*><3<;;*<<-55<3*595*<$>>oZa44<4*<545<4--4*42*<7<41**<444Om",
"se4445>4<<54<-5<3<;-44<<;<=>><+Aa5<<32*2>3>>;42>*>2<55<<33<454+x",
"a4<e>-5<2552<44*<7<<22<**<-**3OCa<,<4<44344-<2>>4><277>>534232on",
"t2<4<5e<2;52525445<444<4<*<<*>ONa2>5445<>4;42*42<&*<4<>5755544&m",
"woXOXO++@OoOXOO#++oo+OO.XoOX.XOnr++O++OX+XXo+OXoXoXX+O+%++###+Om",
"NMnnm:cnnn:cvbbmmvvxvv:nvnvnvmmNZNvbmbmn:ncvbvxvxvxxvxnMMNbvnnnN"
};
