/* XPM */
static char *_342_f4d234775c3d990bafdfd9ca7d1e4c5474ba5ae4b33fd7fa1f97ced729522069[] = {
/* columns rows colors chars-per-pixel */
"64 64 94 2 ",
"   c #2D1E0A",
".  c #311E0B",
"X  c #2F210B",
"o  c #34230D",
"O  c #3B260D",
"+  c #36290E",
"@  c #3C2A0E",
"#  c #3D350E",
"$  c #3B2610",
"%  c #3C2A11",
"&  c #40270C",
"*  c #432A0E",
"=  c #4B2D0E",
"-  c #44320E",
";  c #4B310E",
":  c #433D0D",
">  c #493F0F",
",  c #53310F",
"<  c #59330F",
"1  c #593A0F",
"2  c #442D12",
"3  c #492E11",
"4  c #502F12",
"5  c #443113",
"6  c #4C3213",
"7  c #453C11",
"8  c #4B3C12",
"9  c #4D3518",
"0  c #533513",
"q  c #5A3714",
"w  c #553915",
"e  c #5B3A15",
"r  c #543718",
"t  c #573919",
"y  c #5C3D19",
"u  c #623C15",
"i  c #693E16",
"p  c #623F18",
"a  c #683D18",
"s  c #44410F",
"d  c #50460F",
"f  c #524611",
"g  c #584916",
"h  c #644116",
"j  c #6A4117",
"k  c #64421B",
"l  c #6B441B",
"z  c #6E491E",
"x  c #734519",
"c  c #74481C",
"v  c #7C4C1B",
"b  c #5E432E",
"n  c #5E4430",
"m  c #624631",
"M  c #654933",
"N  c #6B4D35",
"B  c #6D4F38",
"V  c #714F36",
"C  c #6E5037",
"Z  c #6E5038",
"A  c #725037",
"S  c #74533A",
"D  c #79563C",
"F  c #7D593E",
"G  c #765640",
"H  c #7E5B40",
"J  c gray44",
"K  c #7C7C7C",
"L  c #824E1B",
"P  c #8D551D",
"I  c #815C3F",
"U  c #835E41",
"Y  c #866143",
"T  c #8B6446",
"R  c #846348",
"E  c #8D6648",
"W  c #8E6849",
"Q  c #906747",
"!  c #906847",
"~  c #906748",
"^  c #926A4B",
"/  c #996E4D",
"(  c #9C714E",
")  c #956F51",
"_  c #986E50",
"`  c #967051",
"'  c #9C7251",
"]  c #A0734F",
"[  c #A27552",
"{  c #A57855",
"}  c #A97B57",
"|  c #AA7C59",
" . c #858585",
".. c gray54",
/* pixels */
"0 0 0 3 2 3 @ 2 O o + @ 9 l g a , 6 - ; 0 5 2 3 t 3 3 q & $ $ o 3 2 2 $ $ e 0 3 q < e e q 0 6 3 O 4 0 e y 3 0 2 . * * e j j z t ",
"t 3 2 o 3 0 6 y q o % $ 6 g h w 1 * = 6 6 5 3 3 6 6 q t r 6 + 6 0 & 2 2 3 i L L L L < u 0 ; $ q @ * q , 4 p 0 o - O 3 v x l z c ",
"$ O 0 3 6 y 2 g 6 + * 2 y g d 1 ; # @ o + 9 5 t y r r y y 9 q 0 3 0 2 y t P v v x x x 3 0 = 0 g w 6 O , y 0 @ + o 2 j l l j y j ",
"0 3 3 3 r k 0 y 0 o o & + * > s ; @ O @ % @ t g k p y 3 y 6 3 y 0 a r u L L x e p 0 6 3 6 6 0 6 , 3 @ q 0 o & 0 w 5 0 j u t 6 6 ",
"6 2 = 2 l l 6 r 9 + % $ + 6 ; s s @ & @ O 3 9 y y y 9 2 r 9 o . r t y v L x 2 2 e y 3 4 6 $ 6 2 @ * q q O 3 2 w 0 9 3 6 O % p u ",
"= & 0 2 k y 9 y 9 5 # o 5 w w 6 d : X X $ 2 6 0 t 6 r 9 $ 2 . 3 0 u x i c y 2 k t y 0 3 0 2 2 = , i u O & = 3 = 6 0 % + o 2 0 0 ",
"= O e q y j % $ 5 6 # % 5 6 5 7 9 s # $ $ $ 6 6 3 0 3 0 6 $ $ 6 p x i u 0 0 p 0 2 r r q 3 0 6 2 q i u < O @ O @ @ * * 2 o 2 = 0 ",
"q O < , 0 0 0 u 8 y o 6 2 k 6 r 8 6 $ 2 $ % Z 3 3 r 6 2 6 r 2 9 x v a & 2 q 0 9 2 5 0 q y 4 3 3 ; < , e O = 0 0 q h j * . w q t ",
"6 O o $ m O 3 0 y k + 5 r w 6 6 2 0 g 3 o 3 B B 3 2 3 O M 2 o S j L j * 2 3 3 6 y y p e e 0 q 1 s M d 5 = e q t k h y O S u q y ",
"D @ o X F m 2 m % % @ + D @ 8 , * 2 t * G . G M N o * N n 3 A D 0 x u = = 6 * 2 y e p y y 8 : f : N : M 2 O ; r A L j D D o M 2 ",
"V S o D ( b q b F % Z + D 6 N = = 2 $ o V G S D b 2 b b ( B D ^ 0 + u . 2 $ $ % 2 = 6 0 g > # M @ I N N m   H g Z A h A W D m B ",
"Y A $ S ^ ] b | Z o C C [ 6 N ; A * o   W B U V A O D ' E A ! ! = = o . N $ 8 0 * 5 y 6 y 6 F m b F m D I O S S T Z A ^ E A D A ",
"^ ^ A E T T b ^ E Z ^ D / b T N V u 2 B U U S U A D T T ^ ^ ^ ^ - o X A Z 9 Z 9 6 3 ; O A A A } D S D ( ^ D ! S ^ ^ C T Y W U E ",
"^ ! A T T .. .W ) S E ^ Q U I N ~ 0 2 N U U D U F N U T ^ ^ Q ^ S o 5 Z ^ 6 S S 6 t 0 S Z Z Q ^ Y / F T ! D ^ E E ^ T Y Y T D T ",
"^ ^ T T E K K W E E ^ ^ ~ ^ U ^ ~ A $ U U D [ ' A T U ~ ^ Q T Q S @ 5 ^ ^ A W A 3 b 6 A W ^ T T U T D E W ^ E E T W Y Y Y Y S Y ",
"! E Y I T E H ^ Y W ^ ^ T E ^ U E S 0 D D ' U / S U U U ^ Q Y Y U 5 Z W T C E T m N 0 Y W E ! T U U F T W / W T T W F F U Y D T ",
"! ^ T Y E Y D T T ! / ! I T T ^ T ^ N D / U Q U / V U U Y U Y Y T C C ! Y Y E ! n Y N Y ! T W ! U U F U ~ ^ T U T U T U U F V T ",
"( ! E Y Y T S ^ Y T T T U T Q ^ U U m ] U U ~ T I V U T I I U T T A Y Y Y Y Y D Y Y N E ^  .K ^ T Y D T T ^ U U T T U U F S S U ",
"E E ^ W T Y D T T T Y T T T ^ T U U _ U T T T ~ ~ D U Y U U Y U U H H F H D D I Y Y Y Y Y K J T U F A U T U U T U U I F U U H T ",
"T ^ ^ T Y Y F ! ^ T T T T ^ ^ ^ E I T U Y U ~ ~ T G U H U Y U I Y Y Y H D D D D H E Y R Y Y T Y Y F S U U U T U U H D [ } | [ D ",
"F T Y T Y F U / ^ T ! ! ! / ^ E T H ~ T ~ ^ ^ W ^ D S V G H S F Y H H I S D F F H Y Y D D D H H D S G U ~ ~ T U H D ' ^ ^ ) ^ } ",
"[ I D Y D F H / ! T T ^ ! ^ ^ ^ ~ F T U ^ ^ T E ^ H D S G A A S S D D D S H Y U F D D S S S S S S D H U ~ ~ U U U S [ ^ ) W E / ",
"^ { ( D S S F ^ ! T ! U T T ^ ^ H D D U ~ ^ ~ ~ U V A S / T ^ ] ( ! ! ( A D Y [ ( / / ( ^ / / / S B A U T T T G S A H ^ T T E ^ ",
"^ ^ Y / ^ A F T Y T ^ Y Y T T E H H D S U E E E U D S T I U Y T ! T ! E ( H ( ^ T Y ! ! Y Y U Y ^ B D D F U H [ ^ S D Y T E ^ ^ ",
"! ^ ^ T U / S U U T U U Y U T F { } [ } D Y Y T T D ( I Y E T ^ ^ ^ ^ ! T D U U T ! / ^ E ^ ! ! T ^ A A [ { [ W U ^ S T T ^ ^ ^ ",
"^ ^ T U U T V S I I I I D D D { R  . .T [ D I Y I S Y Y ^ ^ / ^ E ^ ^ ! E D T Y E / ^ ^ / / E ) Y F A ! E T W W T T S E T T T ^ ",
"^ ^ ^ Y U U S V H I D S ( ( [ E T K K T T ( D D F A Y T / ^ W / ^ ^ ^ ^ T D T T E ! ^ ^ / ! ! ^ T Y D T T T T Y U U S T ^ ^ ! Q ",
"T ^ ^ T I F S S [ [ ] ( Y Y Y E Y Y Y Y T Y / A S S ^ T T E / / ! ! ! ^ T S Y E E ^ ^ E E E ! / T Y D E ^ ! T F F I T ~ ^ ^ ^ T ",
"Q T Q U I D U [ T ~ T ^ Y U U Y E T Y T U Y Y ^ D D U U T ^ T ^ E T T T T Y A ! Y E E E W ^ ^ Y Y Y S I E T H S T E ^ ^ W T ^ ` ",
"T Y U D D D F ] ~ ^ ^ ^ T Y Y Y T Y W T Y Y U T / I U Y U Y T ^ / / T W Y Y F ^ T E T T W W E T Y T D D Y H S Y U T W W T ! ^ T ",
"Y D D ] [ F U T Y ^ / W W ^ ^ ^ Q T T E Y I T E E A F W U I Y T W E T ! ~ ^ D Q W W W W W W Y Y Y T T U D A H Y T Y T ^ T T T ^ ",
"F ] / T U / D T T ~ ^ ^ ^ ^ ^ / Q ^ T T Y T T E ^ D F U U U I U T T T W ^ ^ T ~ ) E E R W W W Y Y T U D D A F T Y Y T T Y T T Y ",
"[ T T T T ' S Y Y T T E T ^ ^ ! T E T W Q T Q ^ ! D D I T Y I D F T W ^ W E E E T Y T E Y Y W Y Y R D D S S D F H H Y Y D H R F ",
") E T U U T / S H Y T W E ^ ^ ^ ^ ^ ^ ^ T Y T T E F D S F I U I F Y ` T W T Y U T T Y T T Y W H H D ( ' / T D S S R S D D H S S ",
"T T ^ ^ E E ' S F T T E ^ ^ T T Y I ^ / / T T T E D ' ( A A S D H T T Y Y T W ^ T Y E ^ E E H D D ( E Y ! E { { D C C / ^ A A A ",
"U T ^ ^ Q U U ' D U Y T T ^ T T T Y Q ! ^ ! T T I D ( Y / / A D D U T Y Y E T E ^ W Y Y R Y D ^ ( E Y E / W / ! ( F ! Y Y ^ ! C ",
"H T Y Y U Y H U ( D H Y T Y F I T U Y Y Y T Y U D A / Y T T ( / ' G F D Y Y H U W Y F U F S ( I ! ! ^ ^ ( ( ( ) ' N ! Y T T Y ^ ",
"Y H T Y U T U U H A S D D I S S D D D F F F D D S ^ U I Y T Y Y T ' S S D D D D F F D S A A ( T ^ ! ! ! ( E ! E Y ( S E ^ ( T Y ",
"E S Y R W Y Y Y U A N / / ] ( ( ( ( ( ( / S A A ^ T T Y Y T U I Y T G S ' / / / [ } } [ S D Y Y E ! ! ! ^ ^ W ) T ' D W / ( ! T ",
"U G R E W W E Y U A / U I Y Y T T Y U Y I ! A ( Y T T T T Y T T E Y D / U E E T ^ / ^ ^ ^ A U T ! ! E T Y ^ E E F U E D E E T T ",
"E E S E W T ^ W U A ^ I T ^ W E Y T T Y Y ( S ( ^ ^ ^ T I Y Y U W W Z Y T / ^ Q Q / ^ T T S Y U W T T ! ^ W R T T Y E Y D ) ) R ",
"Y Y S I E / / E F S ^ Y Q ^ ^ ^ T T I Y Y / D [ / ^ ^ Q Y T T Y H H S U / ^ / ^ ! ^ ^ T Y C R U T E T E ^ W E T E K K E Y D W W ",
"U I S U W E T Y U A / T T W ^ ^ ! ! T T T / H ' Q ^ ^ ^ ! T Y I E Y N U ! ^ ^ ^ E E / ^ T D Y Y W W E ^ ^ Y U Y Y K K E Y F E Y ",
"U Y U D T Y T E F S T W T ^ / W ! ^ ! ^ T Y } Y Q ^ ! T Q T U Y E E A R W T W W T W ^ W E D Y U Y Y E ^ Y U T E Y W W T Y U D E ",
"E T H U D T W Y Y A T W E E / T / / / ( ^ / ^ } D I U T W ! T Y R E Z E T Y T T ^ ^ E E T S Y I I I Y Y W E T Y E E Y U Y Y D Y ",
"^ ~ E U A A H D S A U T ! T E ^ ` / ! ^ / ( ' / [ D U T T T W W E .. .E T T E W W ^ W T T D I Y Y Y Y ! ^ W Y T T T U Y Y H D H ",
"^ ^ E T F S ' ' ( ( I ^ E ! E T ) ^ ` W ^ ^ ^ ( ^ [ S I ^ ( / ^ ^ K K ^ E E ^ W W W T E T S D Y U I F I E ^ Y T F Y F F D D C U ",
"W E E D H ' T T T T ] F T E Y Y W / ^ W W W / ^ ! ^ [ D Y ^ ^ Y W H M W T T T ^ W E W T Y D Y Y F I U U W E Y D S D D A S S S S ",
"U U D S ( ^ T T ^ ^ T [ F ^ T Y T ^ ^ E T T Y ^ ^ ^ ^ ] D D D Y T U V U U U Y U ~ ~ T ^ I A I I Y I I Y T U F D [ | } ' ^ ^ / [ ",
"[ U S ' I T ^ Q ^ E ^ ' D T T T E Y E T ^ T T ^ ^ ^ / Q [ S S I U G V D S U I U U U U Y A S A S F I Y F F F [ } ^ / ^ ^ I U Q ^ ",
"/ D ] T T Y Q Q ^ E Y U U D U T Y T W E T E W ^ T W / / W | / D D S S H A S D S S V S V S A A S I D D D ] ] T ^ ^ ^ ^ ^ Y ^ T ! ",
"/ U Y T Y T T T / W E U U D U R T R E E T T ^ E ^ / ^ / / W T T U E D F S D D ^ / / / / ] S V S D A / ( ^ T T E W ^ ~ ` T T ^ ! ",
"/ F T E T Q / Q Q ^ U I H A U E U R E R R E E W T W ^ ' ^ ` E Y ~ ^ Y H A N / E U I Q T D / S S A ^ Y E / / W ^ ^ ^ ! ^ ' ) W ^ ",
"T / U E T T ^ Q T T U U H H H H U .. .E ) E E ^ T T ^ T R W R E ^ ~ U D S A T T T Q Q Q T Y D N S Y W E ^ ^ ^ ' E Y T E ^ W T W ",
"T [ Y T T T Y Y E ~ Y D D U U H G K K R R U T ^ Y T Y U Y Y Y R F U A S / / D I Q / / ^ Y D N C D U ) E ^ / ^ ^ T T / E T Y T Y ",
"^ ^ [ F Y T Y T Y T U ' _ [ [ } ` G H H Y U Y T T Y U Y Y Y Y Y D D / ^ F U ' F Q ^ ^ Q D / ^ ( D U H Y ^ ! T ^ E T ^ ^ Y U Y E ",
"Y E W ' U A F U U H [ / E ^ ^ ^ T / S V D U T U H U Y W T D D F ^ Q U U U Y Q [ I F Y F } ^ T Y ( A D D T T E T ! T ^ ! ^ W ^ W ",
"T ^ W Y ( / S A S [ ~ ^ ~ ^ ^ ~ E T ( ^ N A D F H Y U H D S S ^ F I Y Y Q T Q ^ [ [ S } / ^ W Y T W S D Y I U T ! ^ E T / W / ^ ",
"Y W W E T T D D ' W ) ) T T ^ T T E I I / T S V D S D D S D ! F U T ^ ^ ^ ^ T Y Y T D ^ U W W W E F ^ [ F D A H I T Q ' Y T E W ",
"T E W T T T D [ W Y U T E ^ T ^ Q T U U T U V / / ) ( ' ' D F U U T ~ _ / ! Y Y T H ' Y E Y T T H [ T I / ( / D I U T T I Y ^ ^ ",
"U E E W T S ] E W T T T T ^ Y T ~ ^ E T T T A ^ U U F Y ' A T T ^ ~ ^ / Q T ^ ^ T U Y T Y Y F D ' W E W T T U ' S D F Y Y T W E ",
"E ^ ^ E Y S T T E W ` ^ ! ^ T T T / ^ T T F ( Y U Y T T Y ( D W ^ / T / T Y ^ ^ ! F Y T T Y F S ^ ^ T T W T T Y ( D F I Y Y E E ",
"! ! Y Y ^ D Y T T ^ W E E W T Y Y ! ^ T E Y } W T E T T E / A F ^ ^ ! ^ Q ^ ^ ^ T S U Y T Y F T W / ^ W W W ^ T ! I F Y E U H Y ",
"/ ^ T I T I U Y ^ ^ ^ E R ^ W W ^ Y T Y D } E ` E U / W W I ^ D Y T T Y ^ ^ T T Y D F Y W Y A Y W E ^ ^ / T ! T T T D F F F H U "
};
