/* XPM */
static char *_303_260823e9b90c15dba11ffa1b735aca88b72e72978f2dc6f441f58dbb8a16f559[] = {
/* columns rows colors chars-per-pixel */
"64 64 81 1 ",
"  c #2F5531",
". c #325633",
"X c #345E36",
"o c #365E38",
"O c #37613A",
"+ c #39643C",
"@ c #3C6A3E",
"# c #5E432E",
"$ c #5E4430",
"% c #624631",
"& c #654933",
"* c #6B4D35",
"= c #6D4F38",
"- c #714F36",
"; c #6E5037",
": c #6E5038",
"> c #725037",
", c #74533A",
"< c #79563C",
"1 c #7D593E",
"2 c #3E6D41",
"3 c #3F7041",
"4 c #765640",
"5 c #7E5B40",
"6 c #406F42",
"7 c #427444",
"8 c #457947",
"9 c #467C49",
"0 c #487E4B",
"q c gray44",
"w c #7C7C7C",
"e c #815C3F",
"r c #835E41",
"t c #866143",
"y c #8B6446",
"u c #846348",
"i c #8D6648",
"p c #8E6849",
"a c #906747",
"s c #906847",
"d c #906748",
"f c #926A4B",
"g c #996E4D",
"h c #9C714E",
"j c #956F51",
"k c #986E50",
"l c #967051",
"z c #9C7251",
"x c #A0734F",
"c c #A27552",
"v c #A57855",
"b c #A97B57",
"n c #AA7C59",
"m c #4A834D",
"M c #4D8750",
"N c #4E8A51",
"B c #518E54",
"V c #539256",
"C c #559658",
"Z c #59965B",
"A c #57995A",
"S c #599C5C",
"D c #5BA15E",
"F c #5E9B61",
"G c #629E66",
"H c #649F68",
"J c #5EA361",
"K c #5EA862",
"L c #61A564",
"P c #62AA65",
"I c #66A469",
"U c #65A868",
"Y c #68A96B",
"T c #64B067",
"R c #6BB36E",
"E c #6DAC71",
"W c #73AE78",
"Q c #6FB074",
"! c #71B474",
"~ c #858585",
"^ c gray54",
/* pixels */
"A00m@CNM0NAmmmVV22M92BKNDSSEGNA0ZONmmmVSmm8V@V7mNPZNNDN@VmI2CSmS",
"LZ070BmO@7@SBm7m3o28F2DFFmJJIVV7SJ3M3NmDC8OC887VNUAJCNVVmV9mmNMB",
"SB@Bm0CJ09mMSL8382ANSFNm.NUCCmNOOCC3ZAVASSm7LTJ0NAmELDMDJM07mBm0",
"0N6mAMmVCmmDNS779AKJA2N9DKOANN@72DC+MVKJVA80JSYASSSAFUJH6VVm89B2",
"8+279M9Mm22LmV7OAC0NNZmVmmJ08NN0VNm0@C0NmV87DVUNm3VmmUM8@Z7Mmmm8",
"2+97998VN77MNBm2AN8NKS89MVFM!008mNCCM8mVMABC0ZLm9mm8APB mALVB0A7",
"R!V7M799702oomLBRJJNS@MDmNmmNmmNJMNN7ASVmG72m0BB8mN3MAN30@B0Bm8B",
"NBZm7VL@ON0+oBAmIFVCS3:7CQKm9B7B+20Cm NNmB+7@8BL8880m0J0NB7B0V60",
"WGM3&A927B72BPS7mXNmA6==2SN8&S9>3m3C0799B0B3V8@DM&NSmVD89SCB,m3m",
"<mOm1%7%Zo60<7Z28mmm<85&*M+*#N,<0+Nm788@Zm0SDmmVB&A&Jm@9:@8<,m$V",
";,O,h#V$1M=71O&0DKCS=1,,#C##h:<fQOmm97mO+NS8mm7&B1*&%StM::N,i<&;",
"y:Z,fc%n=X=-c7&9,Am7i:1,:N<hy,aa9mNO&287SZD77@e&%1%1eS>>y,,py,,:",
"pf>pyy$pi=f,g#y*;m7:tt11><tygfffV+0:;N;AV078,;>v,>,hs1p,pf;ytptt",
"fp>yy^~pp,ffarr*pDM*1t,t1*tydfaf<VS:f7,,Vm@;:*afyh1yf<fypjytty<p",
"ffyypwwppifkdfrpp,0t11hh>ttpfaya,2Npf>p,m#m;fpfytt1ppfpyyprttt,y",
"fpreyy5fypdfyifry,M1,zth,etefyyyr9:py;yy$=Ctypyyet1tpgpyypr11t1t",
"sfytyr1ytfgfeyyfyf=<geyyf>rryrrry>*drrdy%r*uddpptt<yifyryryrr1>y",
"gfprty<ftytyetaa1r%gryare>ryeeyrr>rrrrr4ir*dd~Hptt,yydrrytrr1><r",
"ypfpyt<yyytyfyfarrzrytyai<rrrerrrrr<rr,rrrdrrwqyt1>eryrytr11rr5t",
"yfspty1yfyayyffaf1yrryday<rrryrryrrr4r<,rdrrrdytt<>yryyrr1<cbbv<",
"1ytye1egsafapgfpy5iydffdf<>=45>1rrr5,,rrrrrr1111<>1yyiyr5<zfjjfv",
"x11t115gftyspfffd<yyffiif5<<4:,>r,4,-rrr44<,,<;<,<4rddrr1,cffppl",
"gvg,>11ffyfttyffr<<rygidr,,,gyfhggdg-rrcxgkxgsgg,=>yyyy4,,1fyyff",
"gfygf*1ptyyryyyp55><rydir<>yeetyyyyygrcdyrdyttrtd=<,15rcg>1tyifd",
"yfyyrg,rryrrrey1zvcv<tyyy<getiiggdgii<rrysgfyssptg,>cccprf<tifff",
"gftrry>>rr1e<11cy^~yc<1te,tyiggfdgddi<yrplgfggygt1>sppppyy,yyyyf",
"gffyrr>-1e<<hhciywwyyh,11>tygffgddgdy1yiyffflyffye,yypytrr<ygsfy",
"yffyr1><cccgttyytyttytg-,<iyyyggddddr<riyffpypshyt<yfpy111ydfffy",
"yyyre<ecydyiyerrpytyrttf,1trypyfyyyyyy<dtiyppfftty,epy5,yygfpypl",
"ytr1<<1xffgfyrttytpytttyg1rtryyiggyirr5dyiyyppyyty1<t1,ttyppypfy",
"t1<xc1eyyagppjfgyytpteyya>1pr1yyiiiadd<dpppipptttyte,>5tytyyyyyf",
"<hgyrh<yyyffffffffyytyypf<<rrreryiiffdidliuipppttyr1<,1tttyyyyyt",
"cyitrc>ytyypyfffyyypyyyff11eyte11yffpiyyyyyyttittt<<,>1r15tr15t1",
"kiytyyg,etyppffffffgayyyy1,,11ee1rlyiyyuyytyttp55<lzgy,,,u<,<5,,",
"yyffyiz>1yyyfpyyyeyggyyyy1hh>><1ryytyyifytyfpp5<,hyyppvv1;;gg>;,",
"ryffirrz1etyyfyyytfyffyye<htgg>,55ttryyifptyut4ghytpgfffh<steff;",
"5yttrr5tg15ryt11yetttytr,>grythhk<1<rrrrpt151,gefsffhhhfz*ftyytg",
"t1ttryrr5>><11,,1,<111<<,gr1tyttyz,<41<,e<1>>>hyfffsgsppth,yfgyr",
"y,yuitttr::gghhhgghhg>>>gyyytyreuy<,zgkhcbvh,<ttysffsfpjyz1yglpy",
"r5uypfirr,gretyyyyyr1f>httyyytyyyy<kryayfggpg,ryypyyrgpy1ry1ypyy",
"ii<ypyffr>gryffptyttth,hfffyeyrrpp:tygfaagfyy,trpirdffifytdr4jji",
"tu>5plgy1,styffpyyreth<xfgfaryyy55,rgfgfaffyt;utipddfjrrdHwdrrdu",
"51>rpiyte>hyypgfasyyyh1cfsffsyrryt*rffffyigpy<ttipkdfrrrrwwdrrir",
"ryt<yyyy1,ypyffppfffytvtyffyayrtiy,uyyfiypffi<trrrrkrrdfddirrr4d",
"yy5r<tptr>tpypgyggggggfb<etypaytuy=iytyyffpyy1rerrdrrfrrddrrrrrr",
"fdir,>4<<>typyyghlsffhzgc,eyyypip^~yyyifpjpyy,rtrridjdrfrrrrrr4r",
"gfiy5,vzhh1gyyyylflpfffhgc,1gggfjwwpiifppyyit,1trr1rrkdrrrrre4-r",
"pyy15gyytyceysttpjfpppgfygh1tffty5&jyyyfpipyy11t11rrfdr4-r<--,,4",
"rr<>hpyyffycedyriffyiitffffc>11yyr>rrryradrae,11reeryr11vnvcfdgc",
"v5<zeyfffidc1yyyytyyfyyffffac,>er4:<>r1rrryy-,,,1ere11cvdffirraf",
"g1hyyraafiyrr4rytyiiyipfyfggfnh<<,>r<-><,-,,,--<e<<<xxyfffffyfyf",
"g5yyyyyyffurr<ruyyiuyyfiffgglptyri<<<<<fgfggg,-,<<dcfyidfdfzyyyf",
"g1yiyygfddrrr>ryuiuiiiyiypfzflitify<,*gieeay<g>,-frdkkpfpfpflfpf",
"ygryyfsaayrr15555^~ypipfyyfyipuiddr5>,yyaaaayy<=>rpygfglptyfgiyp",
"ycyyyyytiit<4rrr4wwuuryftytrttut1r,>gg<esggfe<*>4rpifgffyyfpyryt",
"fdc1tteytyrzgccbj45rurtyytrtt5tt<<gf1rz1fsfa1gfg5rryddydfyfftryp",
"yypzr>1er5cfifffyg,,<ryr5rrpy<11farrrrdve1r1nfyth,<1yyyyyyyffffp",
"yfpyzg>,>cdffffiiyhf=,115ur5,,>s1ettayafcc<chfptyy,<teryfsfygpgf",
"rppyyy<<zpjkayfyyyeefa>><,1<1,f1ryffsfyyty1feppiy1gz1<>reyaztyyp",
"yyiyyy<cpyryyfyfayrtrr-ggggzh1errydggyyry5ztpyyy5cyrggz>eeyyetff",
"tpiiy,cyiyyyyfyydifyyy>g5r1yz,yyfffgdyffyrtytt1<cpypyytz>1eetypy",
"ppfit>yypplffpytygiyy1htrtyyth<yffihyydfy1tyyt1,pfyiyyyth<1ettyi",
"ffytf1eyyfppipytyyfyytvpyyyyig,1pfyfdygfy<eryt1yflfpfpfyf11turrt",
"fiyry1ttgffyufppiyyt5vpkptfppef,tyytgfyyt<1yit>tpyfffyfyyy11e15u"
};
