/* XPM */
static char *_7585_04ce9b7417b91f67787a0c2c3ad0e98bf78f802a56be54dc7f71d7bf8c5006ff[] = {
/* columns rows colors chars-per-pixel */
"64 64 93 2 ",
"   c #5A3E2A",
".  c #5D412D",
"X  c #61442E",
"o  c #634731",
"O  c #664932",
"+  c #6B4D35",
"@  c #6E4F38",
"#  c #714F36",
"$  c #6F5037",
"%  c #6E5138",
"&  c #725037",
"*  c #74533A",
"=  c #79563C",
"-  c #7D593E",
";  c #5D565E",
":  c #765640",
">  c #775840",
",  c #7E5B41",
"<  c #63585F",
"1  c #665661",
"2  c #6A5761",
"3  c #635963",
"4  c #6A5B64",
"5  c #675E6B",
"6  c #6C5E6B",
"7  c #715D64",
"8  c #715F69",
"9  c #6C616D",
"0  c #72636D",
"q  c #7A666E",
"w  c #7A686E",
"e  c #6D6472",
"r  c #6D657A",
"t  c #746572",
"y  c #7A6772",
"u  c #756975",
"i  c #7B6A75",
"p  c #726779",
"a  c #78677A",
"s  c #756A7B",
"d  c #7C6D7B",
"f  c #7E707E",
"g  c #7C7C7C",
"h  c #815C3F",
"j  c #835E41",
"k  c #866143",
"l  c #8B6446",
"z  c #846348",
"x  c #8D6648",
"c  c #8E684A",
"v  c #906747",
"b  c #906847",
"n  c #906748",
"m  c #936A4B",
"M  c #996E4D",
"N  c #9C714F",
"B  c #956F51",
"V  c #986E50",
"C  c #967051",
"Z  c #9C7251",
"A  c #A0724F",
"S  c #A27552",
"D  c #A57855",
"F  c #AA7B56",
"G  c #AA7D59",
"H  c #826C75",
"J  c #886E77",
"K  c #826E7A",
"L  c #8A6F7A",
"P  c #837077",
"I  c #887077",
"U  c #84717D",
"Y  c #8B727C",
"T  c #92757E",
"R  c #766E81",
"E  c #7C6E80",
"W  c #7D7182",
"Q  c #7C7388",
"!  c #806F81",
"~  c #847382",
"^  c #8B7582",
"/  c #8D7884",
"(  c #867788",
")  c #85798A",
"_  c #8D7A89",
"`  c #917682",
"'  c #937984",
"]  c #9A7D86",
"[  c #947B8A",
"{  c #848484",
"}  c gray55",
"|  c #9B808C",
" . c #A0828C",
/* pixels */
"d u U ' L L i ^ Y K u s s d ' ' L i u i i K U I ~ s Q W s d s 9 f w Y i d s p f d y u d H ^ i u i W W ~ u u U s d ~ Y t s U U ~ ",
"u K K U T Y ~ L L K y U s u H L H q y q K y f ^ ~ t Q W f d s 9 f i 0 u d d p Q ~ H q y J Y H y d E ~ ~ p d ~ d r U y t s d K w ",
"t d K K H H ^ ' L H L i d f K L w w d i u I u s t d ~ d W f f r e u i i / ^ f ( ] T y t ~ ^ ~ u E R K ~ d ~ ~ ~ U U u u U U d 0 ",
"H E K y y y K ^ U i t d p W i H i u U ^ Y w y d ( ~ t U d U e p s W s 9 H Y ( Y Y ^ K i ~ W d u d d ' ~ u ~ ~ ^ Y H 9 6 H i s d ",
"U i i i u q d ' L r r s s E t t U f d i U ' H ~ d p ~ u r i y 0 W s 9 9 9 f i P d ~ L K / U ~ d u e K y 0 f s w 7 2 . O + t ! ' ",
"K a K H L H d ' Y e r s s W t t d s d d ^ ` K y d d ^ U _ y 9 t s s f i d d u y i ^ Y ^ I U u s u 9 d d f W p 1 o O .   o X ! H ",
"( ) E K H y u U i t t 9 t U U t f W ~ ~ I y K K i t K Y T H i Y / W f Y Y ^ f d K ~ K H U K d ~ ~ E ~ i u W 5 o X o = * = o   K ",
"i K W E i U ~ t 0 d p 0 t Y ~ d W U W ^ K t i 0 K ( ~ K K Y I / Y H U Y Y y d K t e 8 8 2 4 0 U ^ U I K d f u o * & Z S M =   [ ",
"] U d a y ^ K t t R r u ~ ' U t u 9 I ~ Y u i u 9 d f f u P f Y H L H U K q q 0 6 @ @ + o .   o Y ' ` U K d d , V D M m m S = [ ",
"H u y i t ~ ^ ^ R r e ~ ^ u y 9 w t P Y U H H ^ y f K U i u 0 w y y i u t w o * & @ + X X   X X o H ` Y Y K 0 C n m M M m m , _ ",
"U ~ K K U ' ] T t s ~ d i 0 9 0 i d u ~ ~ U t q w U d Y f w i i ~ e e 9 9 , k + o , = & O # = j o ' Y H / ` H K l l l l x m ) _ ",
"I Y ` K ^ L ` K K t d W d p u e t y y y U i i H y d U Y w P / U y e e ; o & m F S j - M m m N - = K I K Y Y U K i v n n K ^ E K ",
"H Y H w u d d i U u W ~ d f f t f f P u f i i u Y u d y w H Y f t 5 e e @ x l m G - Z l c l l F d U K i ] Y K ^ I I Y ` L ' ! a ",
"E K u t p d K ~ i d f ^ Y U W s 0 P I U i u u t i y U U u i f w 3 s s & c l x m l = D c c k l c d y y K ^ H H Y ^ U T Y ^ ' ^ ( ",
"^ i d y E ^ ~ ~ u t ~ U u 0 K K y f U P t t f u e U I i I i f d 9 d p * x m l l k = l l c m l u e d d d y t s U I U U ^ ^ K U [ ",
"K H H U U K i d U d u 9 6 % = i i P f U u s f d f i f f d t f K u u u m l l c l , k k k l ~ ~ f ~ ~ U H d 0 s d H H d ^ H t K ` ",
"U Y ] T I 0 0 u d e e * o % & * u K ~ K y 9 e e 9 e u u f W i H d i y m j k x x = k j l f s W W ~ ~ ^ K K U d u y K d _ i d U ~ ",
"I H Y Y J # X t p 9 % & + k m * ( ~ ' U t 3 * @ o   d r R s d 9 ~ U i d k j j : x j j x U ) s W p u d K i 0 6 5 p W ~ U i u 2 9 ",
"6 d ^ U ` L X @ d s @ l l l m l O ' ] Y 9 + @ % * . + d s W s u ^ d y i j - = j k k u ^ d E f 9 6 3 0 0 6 # @ @ + s i u 0 9 o % ",
"@ * y ^ Y Y y * ~ d l l l m c m *  .J H t @ m l l - O ~ ~ f ~ U K t t ~ ^ - = = _ ~ d s ~ t 0 3 + X . O O @ O O o o Y u e k z X ",
"o % + % T Y y U ~ d d v m M m n l Y H i t m x n m - & _ ^ K e W ~ t s d ~ ( E _ d i E E f < o o o . o @ & x l j - . _ w = > m D ",
"S - o + X H u U ^ u t m l m m m m d d u t t l x m - - ( ~ u t . ^ t o y K ( K K t i K s 9 . . . * = = j n x j j h = - y * c c C ",
"M S N = . . K d ~ u t 9 k x m n z / y 9 t y i m k U ^ w t 0 * - - 0 * =   ^ J Y i E d 5 = = M M * @ * l l l l , = % o d l l b m ",
"M m k M m   o U U i 6 d l l l x - [ H . I d s ~ ( Y q 0 t o + l % % x % = o j K 8 u e t $ k j l x @ * * - , j Z M * - + l x m m ",
"l m c l j M   ~ 6 e t d K j l , S ^ Y k ] Y E Q W q 7 O O * x m m = m l l o O O K d 6 * l b m l k M & $ S D D l j b * @ l m n m ",
"m m k j j l & i O O d ~ H = = D t I Y l j ^ s Q d 0 @ + * M M m x m b n n = l @ ~ f U = M M l m k - & m l l m l l l * x l l l m ",
"m m m l j j * ~ o o X ' H K S l t f Y l * ^ K [ f y + l M m m m m m m m l = l l % e K M M l M m l j = l l l l k j j * l m m b b ",
"l M b l j = * U S S - - H i y l f i u l l @ ^ U K y l l l x M M m m l m l * k x % f f v x l m B l k = l m m l h - - l m M m m l ",
"l l l j h = j h b c l * + U u l f u p l k + + ' w 9 j j x n m v l l l l l l * n k U g x l m m l k k = j l x - & k c m M c l l Z ",
"l k j h = = = h m m M m % f u e f s d l k j + | 4 o j k j l l n N M l x j j = m ~ U @ l m l x l k l - & k - = z k l c l l l m l ",
"k - = N S - j l k m M c l * R R & g d d k h x _ 0   - c j h j l c c l v n m = n s t * x c B l j k k l h = & - z l k l b l l x m ",
"- N M l j M = l l l m m m = = f f * u W k l l * y = - j j j j j k l l m m n x n e % l z x c l k k l z - = & - l k k k l l l l z ",
"S l l k l Z * l k l l l l m * * t d & ~ l l b & & - = j k k h = - l c m m x x U H @ l l k z x z k k = & * % - , , j k j - , k - ",
"C n l k j l M * - l l c c m c = t s E ~ v l l l & - = & - h k h - k C l x l l K % l k l l k c , - = N S M l = & = , * * = , * * ",
"l l n m l l M * h l l l m c l l @ W u - M l l l l - N N & & = = , l k k l l c K % k x c l x , = & N x l b b D D - % % M M & & & ",
"j l m m l l j Z - h k x k B l l @ E I * b b l l j = N k N M & * , j l k j l t * m c k l k z = M N x k l M c M m C - m k h m b % ",
", l j k j k - k M - , j l k - h z + u l l l j h & % m j l l N M Z = = - j k - + c k - - - = N h M b m M N M C m N + m k l l z m ",
"k , k k j k k j , & * = = - = & - . ~ - - - = - = M z h k l k k l C * * - = . * - - - * % & N l m m b m M l b x z N = l M M l k ",
"x * x z c k k k , @ @ M M N N N N M _ N M & & & m l l k k l k h l k : = Z M Z M A F D N & = k k l b m m m m b B l N = l M N l l ",
"j : z x c m x k h * M j h k l l l l 0 h h b & N k l l l l k k k l l = M j n l l m M M m M & j l l l l l k m b x - j x - c l l l ",
"x x = k c l m m k & m j k m c b k l + k k M = N m m m l j l k k c c % z l M m v v M m l l = j j c l l c m m x x l k x j = B B z ",
"k k * h c C M l - & m k b m m m l l + k k M = Z m M b b k k l k , , * j M m M m v b m l k & z j l x l c m l k k x g g x k - c x ",
"j - * h c l l k j & M x l l N m v b l l k N - S b m m m b l k h x j O j m m m m l c M m l - k k c c b m m k z k j g g l , - x l ",
"j k k = l l l l - & l m l m m c v b m m l k D k b m b l l l k k x x & x l l c m l c m c l = k h k k l m k j l l l c x x l j = x ",
"l l , j - k x z - & x c l b m l M M M M M M m F = - k l c b k k z x @ l l k l l m m l l x - h k h h l k c l l l l l l j k k = k ",
"M n x j & * = = = & j l m l x M C C m m M M Z M S = j l b l b b x } { x l l x c c B c l k = h z k k l l m l k l l l h z k , = , ",
"m m n l - = S Z N N - M l l l l B m M c m m m C m S = - m N m m c g g m l x m c c c l x l = = k h h = h x m l k , k - - = = $ j ",
"x l l - - C l l l l Z - l m k k b M m c c b M m m m N - k b M l c , o B x l l m c l l x k - - k - h j j m l z - & - = & & = & * ",
"j j = * N c l l m m l S - m l j x c c x l l l b M m m N = - - k l j & j h j l j v n j m h & - h k h h k l k - - D G S S m m M S ",
"D , = Z h l m m m x m N = x x l x k x l m l l m b m M m Z * & - j * & = * j - j j j l l & * * & - h k - - - A D m m M b h j v b ",
"M - M l l j v v m x k j j : j l l l x x l x b c l m M M m G C = * = * j & * * * & # * & * & # = - = = = N N l m m m m m l m l m ",
"M - l l l l l l M c x j j = j k k k x x l x m x m m m M m b l l j x = - * = - m M m M M N * # * = & M N M l l c m x m C l l m b ",
"M - l x l b M v v m j h , * j x k z c c z x x x x b m C C m z l x m k , & @ M x l l v h = M & & & M k x M M l M c m l m M B c m ",
"l M j l l l m v l l j j - , , , k { { z c x c m l x b b l B l x n m j : * & k l j v m v l l = @ * k c l M m m C l l l m m c x c ",
"l S j l l l k k x n k = = j j , : Q g z x j l m k l k j k l l l h h * * M M = h v M M m j = O * * , c x m M m m l l m c l j k k ",
"m m D - l l h l k l h Z M D S D C : , j z , k l k k j k , , , k * * M m h j N - v m m v - M m M = z k l m l l m b l m m k j l x ",
"l l x Z j & - j j , S m l m m m l M * & = j l j , j j c l = - = m v j j j j n D j - k - F m l k N & = - l l l l b l m l M c m c ",
"l m c l N M * & * S m m m m m x x l M m @ * = = , z j , = & & M h h l j l l v v S Z = S C m l l l l = = k h j l l M b l M c M m ",
"j m c x l l * = Z x B V l l m l v l h h m v * # = * - = = = b - j l M m m m l l l l - b h c m l l - M Z - = * - j l l Z k l x c ",
"k x x l l l = D x l j l l M l b l l k j l h # M M M N Z C = h j j l x M m v j l k , Z k c l l l - D l h M N M = - k l l h k m c ",
"j c x x l * Z l c l l k l m l l l m x l l l & M - j h k Z * k l m x m M v l m m l j k l k j - = Z c c c l l j Z = = h h k k c x ",
"c m m x k * l l c c C m m c l k l M n x l - N k j k l l k N - l m M x M v l v m b = k l l k - = c c l l c l l k N = - h l k x x ",
"b v l k m - j l l m c x c c l l l v m c x j D m l x l l x M * - x m l m l l m m l = , k l k - l c M m c m c b b l - h k l j j j ",
"M m l h l h h k M m m x z m c l l l l k - D l C x k m c x h m = k l l l M M l l k = h k x k & k c c m m m l m l l l = - - - , z "
};
