/* XPM */
static char *_1678_25e60e61fe2300d7576915a7fc52a5250c7151cf672c1c645d8dd657ef713d2b[] = {
/* columns rows colors chars-per-pixel */
"64 64 151 2 ",
"   c #5C412D",
".  c #614530",
"X  c #6D4D35",
"o  c #6F4F38",
"O  c #714F36",
"+  c #6F5037",
"@  c #6E5039",
"#  c #725037",
"$  c #75533A",
"%  c #79563C",
"&  c #7D593E",
"*  c #6D5743",
"=  c #745642",
"-  c #705A47",
";  c #7E5B40",
":  c #755E4A",
">  c #795F4A",
",  c #7D634C",
"<  c #7F6D5C",
"1  c #5B7F61",
"2  c gray44",
"3  c #7C7C7C",
"4  c #815C3F",
"5  c #835E41",
"6  c #866143",
"7  c #8B6446",
"8  c #82644C",
"9  c #8D6648",
"0  c #8E6849",
"q  c #906747",
"w  c #906847",
"e  c #906748",
"r  c #926A4B",
"t  c #996E4D",
"y  c #9C714E",
"u  c #816650",
"i  c #856951",
"p  c #8F6F55",
"a  c #806B5A",
"s  c #956F51",
"d  c #986E50",
"f  c #8F7056",
"g  c #85705F",
"h  c #967051",
"j  c #9C7251",
"k  c #947459",
"l  c #99765B",
"z  c #9B795D",
"x  c #A0734F",
"c  c #A27552",
"v  c #A57855",
"b  c #A97B57",
"n  c #A47E5F",
"m  c #A97C5A",
"M  c #847260",
"N  c #8A7562",
"B  c #897C6F",
"V  c #917965",
"C  c #957D69",
"Z  c #8A7E71",
"A  c #67926D",
"S  c #69946E",
"D  c #6FA175",
"F  c #70A275",
"G  c #78A07F",
"H  c #76AA7A",
"J  c #78B07E",
"K  c #9A816A",
"L  c #958676",
"P  c #9D8673",
"I  c #998978",
"U  c #A98162",
"Y  c #A2886F",
"T  c #B18969",
"R  c #A58970",
"E  c #A28D7C",
"W  c #A4907D",
"Q  c #7AA382",
"!  c #7EAA85",
"~  c #858585",
"^  c gray54",
"/  c #9A9287",
"(  c #9E9488",
")  c #A59589",
"_  c #A39A8C",
"`  c #A99C8D",
"'  c #B69C85",
"]  c #A79E90",
"[  c #B19F90",
"{  c #80AD87",
"}  c #83A28C",
"|  c #81AF88",
" . c #85B28A",
".. c #8EB397",
"X. c #8FB799",
"o. c #ABA79E",
"O. c #99B6A3",
"+. c #9BB9A6",
"@. c #9CBCA8",
"#. c #B5AFA3",
"$. c #BBADA4",
"%. c #A4BBA5",
"&. c #B6B7B0",
"*. c #BCBDB5",
"=. c #96C39F",
"-. c #A2C5AD",
";. c #AAC4AB",
":. c #A4C9AF",
">. c #ABC6B6",
",. c #A7CDB2",
"<. c #AFCAB1",
"1. c #ACC6B8",
"2. c #AECABA",
"3. c #BEC0B7",
"4. c #B1CEBD",
"5. c #BACDBB",
"6. c #A8D1B4",
"7. c #B3D2BF",
"8. c #BCD1BE",
"9. c #C4C3BA",
"0. c #CEC3BB",
"q. c #B5D6C1",
"w. c #B7DAC3",
"e. c #B8D9C3",
"r. c #BDD4CB",
"t. c #C7CEC9",
"y. c #C3DAC4",
"u. c #CCD1CB",
"i. c #C1D9CE",
"p. c #CCD8CD",
"a. c #D8D1CC",
"s. c #C3DCD0",
"d. c #D1DCD1",
"f. c #CFE3DD",
"g. c #CEE9DC",
"h. c #D6E4D6",
"j. c #D1E4DF",
"k. c #D2E7E1",
"l. c #D5EBE5",
"z. c #D8EEE7",
"x. c #DFEFEF",
"c. c #DAF0E9",
"v. c #DFF0F0",
"b. c #E7EDE7",
"n. c #E9EEE9",
"m. c #E5F5F5",
"M. c #E7F8F7",
"N. c #E7F8F8",
"B. c #E8FAFA",
"V. c #F5F5F5",
"C. c #FAFAFA",
/* pixels */
"m.B.m.m.m.m.m.m.m.m.N.N.N.m.N.m.N.C.V.m.N.B.N.N.N.N.m.N.N.m.m.m.m.N.N.N.m.m.N.N.N.m.N.m.N.m.N.N.N.N.m.v.N.m.C.V.m.m.M.m.m.m.m.v.",
"m.V.V.m.m.m.m.m.B.B.m.N.N.N.B.N.N.C.C.C.C.C.N.N.m.N.N.N.m.V.V.V.V.V.V.V.m.v.v.N.v.m.m.B.N.N.B.B.N.m.m.N.v.C.C.m.m.m.m.m.m.m.m.m.",
"m.V.V.m.N.N.v.m.B.C.C.N.B.B.B.N.N.B.V.C.C.V.m.N.m.N.N.m.N.C.n.V.V.V.n.V.V.C.m.N.B.B.B.m.N.N.N.B.m.m.m.v.C.C.v.v.m.m.m.m.m.m.m.m.",
"m.C.V.V.m.m.m.N.B.C.V.N.N.N.N.N.B.B.m.N.m.N.N.N.N.m.N.m.N.N.N.N.m.v.m.v.C.V.C.N.B.B.B.B.N.N.N.N.N.m.m.x.C.V.v.m.m.N.m.N.N.B.N.N.",
"N.M.V.C.V.m.m.B.C.C.m.N.B.N.N.B.B.B.N.N.N.N.N.N.N.m.N.m.m.m.N.N.N.m.N.N.N.V.V.m.B.B.B.B.N.m.m.m.m.v.v.C.C.m.N.N.N.N.N.B.m.m.N.N.",
"B.m.N.V.C.V.N.C.C.V.m.m.B.N.N.B.B.B.N.B.B.N.B.B.N.N.N.N.B.m.m.m.v.v.m.N.N.C.V.m.m.N.B.N.m.B.m.m.v.m.x.C.V.m.m.N.N.N.B.N.N.v.v.m.",
"M.N.N.B.C.C.V.V.V.v.m.N.B.B.B.B.B.B.N.N.B.l.z.z.N.N.N.B.B.N.m.m.v.m.N.B.V.V.V.N.m.m.m.m.B.m.m.m.m.m.C.V.m.m.m.N.N.N.N.N.B.B.B.m.",
"B.B.m.z.l.b.C.V.m.m.N.N.m.N.N.N.N.N.N.B.B.s.3.4.z.N.N.l.l.k.k.j.b.C.C.C.V.V.m.m.N.v.v.m.m.B.B.m.f.n.b.V.x.m.m.m.N.N.N.l.z.l.B.B.",
"g.z.B.s.*.y.p.j.k.m.m.j.l.z.N.N.m.B.m.l.z.+.( L 1.z.z.4.*.w.5.0.d.V.V.V.V.c.m.m.m.m.m.m.B.m.m.m.i.a.8.k.g.m.m.k.k.z.l.q.*.q.k.k.",
"] q.r.-.W ) %.&.7.r.j.4.u.1.l.k.m.m.m.s.9.Q C > _ 7.>.L Z { E [ 5.m.m.m.m.m.m.m.m.m.m.m.v.n.l.k.<.#. .o.q.i.k.7.*.4.4.] I ! o.:.",
", _ O.] U < H B _ -.*.G #.} t.2.k.l.m.e._ i , = Z =./ * n , i ' r.m.m.l.l.j.m.M.m.m.m.m.m.g.>.$.| W > M ( ,.9.| I I | N l u a N ",
"6 N H V 0 U * T N 1 L > ' A ( Q 0.h.l.@.K # 5 # N D V t 9 o r W 4.m.k.1.*.1.f.j.m.m.m.k.i.O.E g = i . & C J I , k > 8 l 7 $ % @ ",
"e z 8 l 9 7   r k , C $ U * Y , _ 5.p.` p 5 % & 8 i k 6 r t q Y :.j.r._ _ X.3.w.k.m.l.4._ N 8 v % % % t z i z $ 0 r # 9 6 0 5 7 ",
"r e O 9 6 ^ ~ e r $ w r 7 ; & X R 6.;.P ; 6 % 5 % X 5 6 r r q z ` s.w.L Y S L ` q.l.2._ > X 9 e 6 d & 6 r % r w 9 d 6 6 7 7 = 7 ",
"r r 7 6 0 3 3 0 0 w r d e r 5 r l ` ..W 4 % y c $ 6 6 e r q q q I +.-.R l , z N ! *...L e e e 9 5 6 & e e e 9 w 6 e 5 5 5 6 % 5 ",
"r e 5 5 7 0 & e 7 0 e r 7 9 r 5 e N F C $ j 6 t $ 5 6 5 r 7 6 6 K ! L z 7 # 9 k - L H K 9 9 e 9 5 5 ; 6 r r 0 7 9 0 4 4 5 6 % 9 ",
"q e 7 6 7 6 % 9 7 w t w 4 7 w e 7 z > 8 t 6 6 6 r # 5 6 6 5 7 5 k 8 > e 5 5 e 5 . f : l e e 9 r 6 6 & 6 e r 7 5 9 5 6 5 5 & o 6 ",
"j e 7 6 6 9 % 9 7 6 7 7 4 6 e e ; 6 . y 6 6 e 6 5 # 5 6 4 5 6 6 6 $ 5 5 9 5 5 & 5 5 X r e ^ S w 6 6 % 7 7 e 5 5 6 6 5 5 4 $ % 5 ",
"w 0 r 0 7 6 % 7 9 7 6 6 w 9 e e 5 5 j 6 6 6 9 9 0 % 5 6 5 4 6 5 5 4 4 4 5 5 $ 5 5 9 5 5 5 3 2 7 5 4 O 4 5 7 5 7 6 5 4 & 5 5 & 6 ",
"7 e r 0 6 6 & q w 7 q 9 9 q e e e 4 6 6 7 6 e q 7 % 5 ; 5 6 5 4 5 5 5 4 = % % 4 5 9 e 5 5 5 7 6 6 % % 5 5 7 6 5 5 4 % c v b v & ",
"& 7 6 7 6 & & y e 9 w q w h r w 9 & e 6 e r r e r % $ # % ; $ 4 5 5 ; 5 $ $ 5 = 5 5 5 5 % & ; ; % $ % 5 e e 7 5 ; % j r d s r v ",
"x & & 6 % & 6 r w 6 9 r w r r r 9 & 7 6 r r 9 e e ; % $ = + O $ ; % % $ O 5 5 5 = % $ $ $ $ # $ $ $ = 5 e e 5 5 ; $ c r r 0 0 h ",
"r b y $ # $ & r 0 9 w 6 6 w w e 5 % % 4 9 r 9 e 6 # O $ r e r x t r e t O & 5 c x t t x r t y r $ # $ 7 9 7 7 = $ $ ; r 7 7 e e ",
"r r 7 t r O & 9 6 7 w 6 6 7 9 0 ; ; $ % 6 9 e 9 5 $ $ 9 4 4 6 9 q 7 9 9 t 5 c t 5 5 9 e 6 6 5 6 r o $ $ & ; 5 c r $ % 7 7 e e r ",
"w r e 7 5 t % 4 5 9 5 5 6 4 7 & c v c c % 6 6 6 7 % y 4 6 0 q r r r r q 7 % 5 5 7 w t r w w w 9 7 r # + c c j 9 6 r $ 6 w e w e ",
"r r 6 6 5 6 O $ 4 4 4 4 % % % v 7 ~ ~ 0 c % 4 6 5 $ 6 6 e t r r e r q e 9 % 7 6 w t r r t t w s 7 & # w 9 w r 9 7 6 % 9 9 7 w r ",
"r r r 7 5 5 $ O & 4 % $ y y c 7 7 3 3 7 9 y $ & & # 6 7 r r r r r r r r 7 & 7 7 9 0 r r h w w r 7 4 % 7 9 7 7 7 6 5 % 6 r r w w ",
"w r e 7 5 % $ % c c x y 6 6 7 7 6 6 6 7 7 6 t + $ % 9 9 9 q t t e r q r 6 $ 6 e 9 r 0 w 9 w 0 t 7 6 % 9 0 w 7 & & & 9 9 r e w 9 ",
"9 9 7 4 4 % 5 c 9 9 w 0 7 4 5 6 0 9 6 6 6 6 6 r $ % 6 5 7 0 r r 7 7 9 9 7 7 % e 6 9 7 w 0 0 0 7 6 6 $ 5 7 7 ; $ 7 0 r r 0 7 0 h ",
"6 6 7 % % % % x e w r r 7 6 7 6 6 6 w 7 6 6 6 6 t 4 5 6 5 6 6 r t r 9 9 5 5 & e 7 9 7 7 0 w 9 7 6 7 % % 7 & $ 6 6 9 e 0 w w 0 w ",
"6 % % x c & 5 7 7 e y e 0 s r r w 7 7 9 7 & w 9 9 $ % 0 5 & 6 6 w w e q e r % 9 r 0 0 9 0 s 6 6 6 6 7 ; % + & 6 7 6 7 0 7 9 7 0 ",
"& x t 7 5 t % 7 6 e r r r r r r w e 9 7 6 6 7 w w & & 4 5 6 4 5 6 7 9 e e e 9 e s 9 8 7 9 9 0 6 6 7 6 & % + & 7 6 6 7 7 6 7 7 6 ",
"c e 9 6 6 c $ 6 6 7 7 9 w r w w w e e r 7 7 q w w & % 4 7 6 4 & & 7 e e e 9 7 7 7 7 7 7 6 6 9 6 6 6 % $ $ + & & & ; 6 5 & & 6 % ",
"h e 6 6 6 6 t $ ; 6 7 9 w r r w 0 e r r q 6 9 9 9 & % $ & & 4 4 & 6 k 7 0 9 6 6 7 7 6 7 7 6 0 ; ; % y j t 7 % $ $ 8 $ $ % , $ $ ",
"6 9 r r 9 9 j # & 7 7 7 0 r 9 7 7 6 e r r w 6 q 7 & y y # # $ & ; 7 7 6 7 7 0 r 7 6 7 r 9 9 & % $ y 9 9 0 w v v % $ + t r # # $ ",
"6 6 r e 9 6 5 j % ; 7 9 7 r q 6 6 6 w e w w 7 7 4 $ y 6 t t # % ; 5 6 6 6 7 7 9 0 r 6 7 8 6 % s y 7 6 7 t w t w y % w 6 6 w w # ",
"& 6 6 6 5 6 & 6 j % ; 6 9 6 % & 7 6 6 6 6 6 6 5 $ # r 6 7 7 y t j % & & 6 6 ; 6 0 6 & & & $ y 4 r w r t t h h s j X e 6 7 7 6 r ",
"6 5 7 6 5 7 5 5 ; # $ $ % & % $ % $ % % & & & % $ y 5 4 6 6 6 6 6 j $ % $ % $ $ 4 & & $ # # y 7 r r w w t w w 9 6 y $ 7 r y 7 6 ",
"7 $ 8 6 0 5 6 6 5 # # r t y y y y y y y t # $ $ r 7 7 6 6 7 6 4 6 6 = $ y t j y x b v y # % 6 6 w w w w r r 0 s 7 j % w r h w 7 ",
"6 = 9 7 r 0 0 6 5 $ r 6 6 6 6 9 6 6 6 6 4 w O y 6 6 9 7 7 7 6 6 7 7 $ t 5 9 9 7 r y r w t $ 4 7 7 w w 7 5 r w 0 & 6 w & w w 7 7 ",
"7 7 $ 8 e 7 e e 6 # r 4 7 r 0 e 7 7 7 6 6 t $ y r r r 9 4 7 6 6 p 7 # 6 9 r t q q t r 9 7 $ 6 4 e 7 6 9 r r 9 7 7 6 e 5 = s p e ",
"6 6 $ & 0 y r w & $ r 6 q w r r 7 7 4 6 6 y % j r r r e 6 7 6 6 & 5 $ ; h t r r w r w 7 6 + 7 , 9 9 9 9 r 0 6 7 5 G 3 e 5 5 r 5 ",
"5 ; $ 5 0 7 w 6 ; # t 9 7 r r r w w 9 7 7 h ; c w r w r q 7 6 4 9 6 X 5 e e r r w 0 t e 9 % 6 6 9 0 e r s 5 5 5 5 3 3 e 5 5 5 e ",
"6 6 6 % 7 7 7 9 & $ 7 0 7 e r r w w w r 9 6 c 7 w r w 9 q 7 6 6 8 9 @ 7 9 9 0 r 9 e r e 9 % 6 5 6 5 e r 5 5 9 9 5 e e 5 5 5 = e ",
"9 9 ; 5 % 6 9 6 6 # 7 0 w w t 7 r t t t r t r b % 4 6 7 0 w 6 7 7 7 @ 7 7 6 6 7 0 r 9 9 6 % 5 5 5 5 7 7 9 9 5 9 9 r 5 5 5 5 5 5 ",
"r e 9 5 # $ ; % $ # 6 6 w 7 7 r j t r r r y y t c % 4 7 9 w e e 9 ^ ~ 9 7 7 0 0 0 r 0 7 7 % 5 6 5 5 5 e r e 5 e 5 5 5 5 5 5 = 5 ",
"r r 9 7 ; $ c j y y ; r 9 9 w 7 h r s w r r t y r c % & r y r r s 3 3 r 0 7 r 0 0 0 9 9 6 % % 6 4 5 4 5 e r 7 5 5 5 5 & % % O 5 ",
"0 9 9 % ; j 7 6 6 7 c & 7 w 6 6 w s r 0 0 0 t r w e c % 6 w t 6 0 % X 0 7 7 7 r 0 9 9 7 6 & ; 6 & 4 5 5 r e 5 = $ 5 & O O % O & ",
"5 5 % % y w q 7 e r w v & w 6 6 0 s 0 7 7 9 6 r t r r c $ & & 4 7 5 # 5 5 5 6 6 q w 6 e 4 # & 4 5 4 4 5 6 6 & & v m v c r e t v ",
"v & % t 4 6 e w r 0 e y % 9 9 6 0 6 7 7 r 7 6 r e r r e c $ $ 4 5 % # % $ 5 4 & 6 6 6 6 # $ $ $ & 4 5 4 & & c v e e r r 5 5 w w ",
"y % y 9 7 7 9 q r e 7 5 6 $ 6 7 6 7 0 7 6 0 r 0 9 r t t r m t % $ $ $ ; $ $ $ % $ O $ # $ O O $ 4 % % % x x 0 e r r r r 7 0 9 w ",
"t 4 6 6 6 7 7 q r r 8 6 6 $ 6 6 6 7 7 7 7 7 s 7 r r r y r r 6 6 5 0 % % % $ % r t r t t y $ O $ % $ r c w 9 9 0 e r e j 7 w e e ",
"y & 9 w 9 9 y q e e 5 5 ; $ 5 7 5 9 8 9 8 9 7 0 9 e r j s r 7 7 9 r 6 ; # X t 0 4 6 q 6 % t $ $ O r 5 e r t 0 r 0 r w r h r 0 h ",
"7 t 4 9 7 7 q q 9 7 5 5 % ; ; ; ; ~ ~ 7 0 9 0 r 7 9 w w 7 p 7 9 e e ; ; $ $ 6 7 7 q q q 9 6 $ O $ 6 r 7 r t r j w 6 w r r 0 7 0 ",
"7 v 5 6 7 7 7 6 9 9 6 % $ 6 6 ; = ~ 3 8 7 6 6 d 6 7 6 4 6 7 6 6 & 4 $ $ t t % 4 r r t r 6 % X # $ 5 s 9 t t e r 7 7 r e 6 6 6 6 ",
"r w v & 6 6 6 6 6 6 5 j j c c v h # ; 6 6 ; 6 9 6 6 4 7 6 & 6 , % % t r & 5 y & w q t q & t w h = 5 5 6 e e 9 e w 7 r r 6 6 6 0 ",
"6 7 0 j 5 $ & 5 5 5 c r 9 r r e 7 t $ O % 5 6 5 & 5 6 0 7 % % % r q 5 5 5 5 q v 4 & 6 & m e 6 6 y # % & 7 7 7 7 9 7 w 0 r r r 0 ",
"7 r 0 7 y r $ $ $ c r e r r r e 9 6 y r O # % & ; 6 4 , % $ $ r & 4 6 6 q 9 q q c j $ v j r w 7 7 0 $ $ 6 & 6 7 w e 9 9 r e h r ",
"6 0 0 7 7 7 $ % j 0 s j 7 9 r 0 q 9 4 4 t w # # $ $ % $ % $ w & 6 6 r r r r 9 6 6 7 % w 5 0 0 0 7 & r c ; % # ; 6 6 q j 6 9 9 w ",
"7 7 0 7 7 7 $ c 0 6 5 6 9 r 9 w 7 9 6 6 5 5 O t r y y j y & & 6 5 6 r y r q 6 6 7 6 j 6 9 6 7 7 ; c 7 6 r y y $ & 6 7 7 4 6 r e ",
"6 0 0 0 6 $ j 9 7 7 7 7 7 e 7 7 q e e 6 9 6 $ r 6 5 4 6 j $ 7 7 r e r r w 9 r r w ; 6 7 6 6 & % c 0 9 7 7 7 6 j $ & & 5 6 7 0 7 ",
"0 0 e 9 7 % w 7 0 0 h s w w 7 7 7 t 0 9 7 4 y 6 4 6 7 9 6 y % w t r w y q 6 q r e % 6 7 7 6 & $ 0 r 9 0 7 w 7 6 y % & 4 6 6 7 0 ",
"r e 7 6 e % 6 7 9 e 0 9 0 0 7 6 6 r w 9 9 6 v 0 7 7 9 7 9 r $ ; e e q e q w r r 7 % & 6 7 6 ; 7 r r 0 e e r w 7 w & 4 6 7 ; 5 6 ",
"r e 7 4 7 % 6 6 y e 0 7 7 0 0 0 w 6 7 6 & v 9 s w 6 r 0 9 6 e $ 6 w 9 6 r r 7 9 6 % & 7 9 6 # 6 0 w r r r 7 w 7 9 9 % & ; ; ; 6 "
};
