/* XPM */
static char *_1294_1a85589bd4d3246dabbc82187dea7510baf07ba01d5cc8d3a57785ed7a18eb7e[] = {
/* columns rows colors chars-per-pixel */
"64 64 73 1 ",
"  c #2D1309",
". c #33160B",
"X c #37190D",
"o c #3A1C0E",
"O c #3E1E10",
"+ c #3F2511",
"@ c #422211",
"# c #4B2715",
"$ c #452A13",
"% c #4B2B15",
"& c #502A17",
"* c #552E19",
"= c #582F1A",
"- c #4F3116",
"; c #533216",
": c #583316",
"> c #563319",
", c #5B331B",
"< c #5B3919",
"1 c #62361E",
"2 c #663D1D",
"3 c #663920",
"4 c #6B3C22",
"5 c #703F24",
"6 c #67401D",
"7 c #6B421E",
"8 c #754326",
"9 c #784527",
"0 c #754B26",
"q c #784C27",
"w c #7A4728",
"e c #7C4B29",
"r c #77502A",
"t c #7D512B",
"y c #7E5430",
"u c #814B2B",
"i c #81542E",
"p c #835630",
"a c #855B34",
"s c #885F38",
"d c #B16E32",
"f c #B47033",
"g c #B97335",
"h c #CC7434",
"j c #CD7B36",
"k c #CE7C3B",
"l c #D37B37",
"z c #D47E3B",
"x c #D97D3B",
"c c #D97E41",
"v c #CF813E",
"b c #D5833D",
"n c #DB843D",
"m c #DD8A3E",
"M c #E1863D",
"N c #E38B3E",
"B c #EA8D3E",
"V c #E5913E",
"C c #EA923E",
"Z c #D68441",
"A c #DB8641",
"S c #DD8B42",
"D c #E38641",
"F c #E48C42",
"G c #E98D43",
"H c #E48C48",
"J c #E59243",
"K c #EA9343",
"L c #EB9845",
"P c #E69248",
"I c #EA9449",
"U c #EC9849",
"Y c None",
/* pixels */
"YYYYYYYYYYYYYYYYYYYYYYYYYYYYYYYYYYYYYYYYYYYYYYYYYYYYYYYYYYYYYYYY",
"YYYYYYYYYYYYYYYYYYYYYYYYYYYYYYYYYYYYYYYYYYYYYYYYYYYYYYYYYYYYYYYY",
"YYYYYYYYYYYYYYYYYYYYYYYYYYYYYYYYYYYYYYYYYYYYYYYYYYYYYYYYYYYYYYYY",
"YYYYYYYYYYYYYYYYYYYYYYYYYYYYYYYYYYYYYYYYYYYYYYYYYYYYYYYYYYYYYYYY",
"YYYYYYYYYYYYYYYYYYYYYYYYYYYYYYYYYYYYYYYYYYYYYYYYYYYYYYYYYYYYYYYY",
"YYYYYYYYYYYYYYYYYYYYYYYYYYYYYYYYYYYYYYYYYYYYYYYYYYYYYYYYYYYYYYYY",
"YYYYYYYYYYYYYYYYYYYYYYYYYYYYYYYYYYYYYYYYYYYYYYYYYYYYYYYYYYYYYYYY",
"YYYYYYYYYYYYYYYYYYYYYYYYYYYYYYYYYYYYYYYYYYYYYYYYYYYYYYYYYYYYYYYY",
"YYYYYYYYYYYYYYYYYYYYYYYYYYbmnZxmzbbnknYYYYYYYYYYYYYYYYYYYYYYYYYY",
"YYYYYYYYYYYYYYYYYYYYYYzbFmvbbbvzZbhznbAnnnYYYYYYYYYYYYYYYYYYYYYY",
"YYYYYYYYYYYYYYYYYYYnAZbbkkNnJJPKPSSJSPAuu8,njYYYYYYYYYYYYYYYYYYY",
"YYYYYYYYYYYYYYYYYmcxSkDmFKmPVPDVNFFKKuw83*%SxznYYYYYYYYYYYYYYYYY",
"YYYYYYYYYYYYYYYnbnbNMDFPnDFVKFnKVPJFK,,=#OiNmzSnmYYYYYYYYYYYYYYY",
"YYYYYYYYYYYYYnSbnCKmSuuu7,NJnnVFNFFJKapptqCFNmKnnnSYYYYYYYYYYYYY",
"YYYYYYYYYYYYzjSvJNNNGu9,>*OXKNKKPJKKBCKKFNMKmmPNzFSnYYYYYYYYYYYY",
"YYYYYYYYYYYmAZDKJSSmIa=&@X qSHGSJJKNBBKKJmHBmDVVFGAbAYYYYYYYYYYY",
"YYYYYYYYYYnmnPNmnMVKmKierreGFDSAmSmVnFNnNmNDnmmPKJBAxzYYYYYYYYYY",
"YYYYYYYYYlhAFnJKFDHNNKJSnHGCPNKGGnASNZNHJKPJNSNNSDMnknSYYYYYYYYY",
"YYYYYYYYzZbNJCNNKFSJDGSnSFBKCBKIKFKKIFbKNKFFmGNKPKFHu4ZnYYYYYYYY",
"YYYYYYYnbZJGKnmFPFNZIJNnFFBHBIBJLBGFCBMmGMUmSKMNCGKB9,bbAYYYYYYY",
"YYYYYYYZnKKFKmmJIu1GJVnPnmPKJFuDBKBKNFnbFFJVFmSJGKC3*OKZzYYYYYYY",
"YYYYYYbnKFNFJnJJuw,OCSnVHNnGJKuuuFFFFNJSSMNIImnKGKFpiiGnnAYYYYYY",
"YYYYYYZSGKADNmSJ83@ SKnmJPVNmuuuuu1mFNNNPS1GKJVnKLKAFMFJbAYYYYYY",
"YYYYYnZGMmNNnFmSa*X0GFNJSNDFN0wuu2,GVKVFM9,=DKKNFPBNJKNNKbnYYYYY",
"YYYYYxmSmGNGNNBNDyqDmPGCNPKKKew91*>OKGGMK8*@BNVPKNSDNPNSLnbYYYYY",
"YYYYYbeu4,JHFFHPJFJPVHNJNKKKG,,***oqGGCAw1# FKKKKLFGVJnmBmnYYYYY",
"YYYYShue*+  FCNCmHJGBnUCNFJLP*&:@o.MVVGJ8,@qmVLJHmJKJFNNJKzbYYYY",
"YYYYzZu3*.0qFKUKNFKNJKnKFGNGFtoX.t0FNJKna*oJJzKKPSFNFGDFCNSnYYYY",
"YYYYzmaatqNBKNNNmmKKVVKmNNCSFJierMSnKNCmKptFBFSKnnFJFMmKNVnSYYYY",
"YYYYbbFJDACFMKJnmVPFJDPDSKnSGHHNGNVMFFnGGPJFKNJNFNFmD9*NKNnnYYYY",
"YYYYbSFJSKHHGKJSNNSVPu3KPnnnSmNKGCPPFSFKJDKGNPNnLKFBF,@nSJxmYYYY",
"YYYYcxNSKKnnMnnNnnKNKe,DmmNDNJSnMNSSSNSFFGHMFGSnNKJKKytFmScSYYYY",
"YYYYmSNFJmNNSPbJSmnmm8,FKFPGKSmPmNNFmmnnFPJNNmFmMKKJmJJIJFmSYYYY",
"YYYYgnNMDMVNKDSKnLIBu1%XFFNGJPFFKNNnFKPmNFNNmFPSNNKDDIKBVZngYYYY",
"YYYY7bnFnSHKKJKCmHGN9,#.FGNFKLCmNFFUHFKFNSNmNBPmJVFmNKKKKjb7YYYY",
"YYYY<nbnKGMSGGNNnFKGapt0FBDUKFFDNVFGKGKNSSFDCCNnnKFFVKPGKkb;YYYY",
"YYYY$fbCJJBmJJFSVNDGCGKFIKmHFNxSSnAAmJnSFmNGBBFmFKSFKNGKNkg%YYYY",
"YYYYY2zmKKmPDGKCnNKKFVKSNFNbnuuu51KKGNJNmnFJKu3#SSSDFKMBZb7YYYYY",
"YYYYY;gnVJKKNGnMANKDLUKSnmnFMw51=&@NCINKNSFVI9&.MSPFGKKGjf<YYYYY",
"YYYYY$7nzJFCFNNnFSNJFCANBCNBFsa%Oo CGJGFBnJKCatqSDNNGKKnx6$YYYYY",
"YYYYYY;gADNNNNFPnSKJGmANKNBKKBFiteqCGVNJNFNFIFKFJNKBKFmAf;YYYYYY",
"YYYYYY$7gAnHFBFSJqe*SFNFJJHKIGKBGNCNNGNNmnmnSmJnFGNMKZng2$YYYYYY",
"YYYYYYY>7gAnKHNFe94&oNNMCSJVKMKNmNmKNGKLJCKSNJNFSLNFmbg7%YYYYYYY",
"YYYYYYY$>7gbAKNJa3*#rInSNHNKKSMNmNBmNPKKKDGLFGPGmFFxZg7;$YYYYYYY",
"YYYYYYYY$>7gAzANHaiqNGFSFFKBmKmJBFCKnFBGPPFGJBGPFKZng7>$YYYYYYYY",
"YYYYYYYYY$;2dzlAPFKFmSnFnZBGJJKNFBBmee9=JJFKKNPNlnng7:%YYYYYYYYY",
"YYYYYYYYYY@:2ggzmFKJNKNSnnmnFNKNINFJu91&JIGKNKGnZgg6;$YYYYYYYYYY",
"YYYYYYYYYYY$<77ggbnBMFGKLIFbmJnnmJmPs=OoJMCGKSAgg76<$YYYYYYYYYYY",
"YYYYYYYYYYYY$:<77ggASSFNKMGGKSJJFHSSnpqrJKnnbgg77>-+YYYYYYYYYYYY",
"YYYYYYYYYYYYY$$;>77gggSZZnKKFmKNGPGKFGAbbvfff66;;$$YYYYYYYYYYYYY",
"YYYYYYYYYYYYYYY$$<-777ggggbnxkSnnAbSSAgggf227<:$$YYYYYYYYYYYYYYY",
"YYYYYYYYYYYYYYYYY$$:;>7777ggfdgggggggg7777:>:$$YYYYYYYYYYYYYYYYY",
"YYYYYYYYYYYYYYYYYYY%$$>>:<776677727777:>>;$$-YYYYYYYYYYYYYYYYYYY",
"YYYYYYYYYYYYYYYYYYYYYY$$$$>>;;,<>>>::;%$$$YYYYYYYYYYYYYYYYYYYYYY",
"YYYYYYYYYYYYYYYYYYYYYYYYYY$$+$$$$%$$$$YYYYYYYYYYYYYYYYYYYYYYYYYY",
"YYYYYYYYYYYYYYYYYYYYYYYYYYYYYYYYYYYYYYYYYYYYYYYYYYYYYYYYYYYYYYYY",
"YYYYYYYYYYYYYYYYYYYYYYYYYYYYYYYYYYYYYYYYYYYYYYYYYYYYYYYYYYYYYYYY",
"YYYYYYYYYYYYYYYYYYYYYYYYYYYYYYYYYYYYYYYYYYYYYYYYYYYYYYYYYYYYYYYY",
"YYYYYYYYYYYYYYYYYYYYYYYYYYYYYYYYYYYYYYYYYYYYYYYYYYYYYYYYYYYYYYYY",
"YYYYYYYYYYYYYYYYYYYYYYYYYYYYYYYYYYYYYYYYYYYYYYYYYYYYYYYYYYYYYYYY",
"YYYYYYYYYYYYYYYYYYYYYYYYYYYYYYYYYYYYYYYYYYYYYYYYYYYYYYYYYYYYYYYY",
"YYYYYYYYYYYYYYYYYYYYYYYYYYYYYYYYYYYYYYYYYYYYYYYYYYYYYYYYYYYYYYYY",
"YYYYYYYYYYYYYYYYYYYYYYYYYYYYYYYYYYYYYYYYYYYYYYYYYYYYYYYYYYYYYYYY",
"YYYYYYYYYYYYYYYYYYYYYYYYYYYYYYYYYYYYYYYYYYYYYYYYYYYYYYYYYYYYYYYY"
};
