/* XPM */
static char *_1947_9d8aa5a7212c45b90b4e2a29b0a7aef8381c22fe5d49fe92e820351903cc8d37[] = {
/* columns rows colors chars-per-pixel */
"23 23 10 1 ",
"  c black",
". c #5F057F",
"X c #730599",
"o c #A90AB5",
"O c #E80CC4",
"+ c #9955DB",
"@ c #2DFFFE",
"# c #EDC789",
"$ c #FBE6B4",
"% c None",
/* pixels */
"%%%%%%%%%%%%%%%%%%%%%%%",
"%%%%%%%%%%%%%%%%%%%%%%%",
"%%%%%%%%@%%%++++++%%+%%",
"%%%%%%%%%%%+      +%%%%",
"%%+%%%%%%%+ OOOOOO +%%%",
"%%%%%%%%%+ OOOOOOOO +%%",
"%%%%%%%%+ ooOOO..ooo +%",
"%%%%%%%%+ oooooooooo +%",
"%%%@%%%+ oo..ooooooX +%",
"%%%%%%%+ oooooXXXooX +%",
"%%%%%%+ oooooXXXXXXX +%",
"%++%%%+ ooooXXXXXXX +%%",
"%%%%%+ oooXXXXXXX  +%%%",
"%%%%+ XXXXXXXXX  ++%%%%",
"%%%++ ##XXXX   ++%%%+%%",
"%%+  $$#X   +++%%%%%%%%",
"%+ $$$#  +++%%%%%%%%%%%",
"%+ #$$ ++%%%%%%%%%%%%%%",
"%%+ ## +%%%@@%%%+%%%%%%",
"%%%+  +%%%%%%%%%%%%%%%%",
"%%%%++%%%%%%%%%%%%%%%%%",
"%%%%%%%%%%%%%%%%%%%%%%%",
"%%%%%%%%%%%%%%%%%%%%%%%"
};
